<svg width="248" height="300" viewBox="0 0 248 300" fill="none" xmlns="http://www.w3.org/2000/svg">
<path d="M142.055 0.0740857C141.952 0.176394 139.906 0.381011 137.502 0.534474C130.596 1.04602 124.969 1.86449 117.45 3.50142C61.6917 15.6761 17.4435 59.0038 4.09232 114.506C1.12539 126.886 0 136.349 0 149.751C0 163.154 1.12539 172.617 4.09232 184.997C15.3462 231.803 48.7498 270.527 93.5607 288.635C122.974 300.503 156.02 302.703 186.814 294.774C207.378 289.505 227.482 279.428 243.391 266.537L247.739 263.007L247.892 231.445C247.943 214.104 247.841 199.883 247.688 199.883C247.534 199.883 245.386 201.315 242.93 203.105C226.97 214.717 208.248 224.13 190.804 229.296C161.033 238.095 131.875 237.43 102.308 227.25C66.3979 214.922 32.2782 188.578 7.62195 154.202L4.4504 149.751L7.62195 145.25C29.1578 115.222 58.3156 91.0264 89.5195 77.2147C104.508 70.5647 122.565 65.8073 137.502 64.5285C142.873 64.0681 156.429 64.0681 161.544 64.5285C189.73 67.1373 217.916 78.1867 242.93 96.3976C245.386 98.188 247.534 99.6203 247.688 99.6203C247.841 99.6203 247.943 85.3994 247.892 68.0581L247.739 36.4959L243.391 33.0174C221.343 15.1646 194.027 3.96181 164.358 0.636783C161.186 0.278703 142.362 -0.181686 142.055 0.0740857Z" fill="#181818"/>
</svg>
