<svg width="130" height="130" viewBox="0 0 130 130" fill="none" xmlns="http://www.w3.org/2000/svg">
<path d="M64.828 0.673828C56.3927 0.673828 48.0399 2.3353 40.2466 5.56337C32.4534 8.79145 25.3722 13.5229 19.4075 19.4876C13.4428 25.4523 8.71137 32.5335 5.48329 40.3267C2.25522 48.12 0.59375 56.4727 0.59375 64.9081H2.57019C2.57019 56.7323 4.18053 48.6365 7.30928 41.0831C10.438 33.5296 15.0239 26.6663 20.8051 20.8852C26.5863 15.104 33.4495 10.5181 41.003 7.38936C48.5565 4.26061 56.6522 2.65027 64.828 2.65027C73.0038 2.65027 81.0996 4.26061 88.6531 7.38936C96.2066 10.5181 103.07 15.104 108.851 20.8852C114.632 26.6663 119.218 33.5296 122.347 41.0831C125.476 48.6365 127.086 56.7323 127.086 64.9081H129.062C129.062 56.4727 127.401 48.12 124.173 40.3267C120.945 32.5334 116.213 25.4523 110.249 19.4876C104.284 13.5229 97.2027 8.79145 89.4094 5.56337C81.6162 2.3353 73.2634 0.673828 64.828 0.673828Z" fill="url(#paint0_linear_23_2)"/>
<path d="M64.828 8.57959C49.8888 8.57959 35.5614 14.5142 24.9978 25.0778C14.4341 35.6415 8.49951 49.9688 8.49951 64.9081H10.4759C10.4759 50.493 16.2023 36.6684 26.3953 26.4754C36.5883 16.2824 50.413 10.556 64.828 10.556C79.2431 10.556 93.0678 16.2824 103.261 26.4754C113.454 36.6684 119.18 50.493 119.18 64.9081H121.157C121.157 49.9689 115.222 35.6415 104.658 25.0778C94.0947 14.5142 79.7673 8.57959 64.828 8.57959Z" fill="url(#paint1_linear_23_2)"/>
<path d="M30.588 30.668C39.669 21.587 51.9855 16.4853 64.828 16.4853C77.6705 16.4853 89.9871 21.587 99.0681 30.668C108.149 39.7491 113.251 52.0656 113.251 64.9081H111.274C111.274 52.5898 106.381 40.776 97.6705 32.0656C88.9602 23.3552 77.1464 18.4618 64.828 18.4618C52.5097 18.4618 40.6959 23.3552 31.9855 32.0656C23.2751 40.776 18.3817 52.5898 18.3817 64.9081H16.4053C16.4053 52.0656 21.5069 39.7491 30.588 30.668Z" fill="url(#paint2_linear_23_2)"/>
<path d="M64.828 24.3911C54.0823 24.3911 43.7766 28.6598 36.1782 36.2583C28.5798 43.8567 24.311 54.1623 24.311 64.9081H26.2875C26.2875 54.6865 30.348 44.8836 37.5757 37.6558C44.8035 30.428 54.6064 26.3675 64.828 26.3675C75.0496 26.3675 84.8526 30.4281 92.0803 37.6558C99.3081 44.8836 103.369 54.6865 103.369 64.9081H105.345C105.345 54.1623 101.076 43.8567 93.4779 36.2583C85.8795 28.6598 75.5738 24.3911 64.828 24.3911Z" fill="url(#paint3_linear_23_2)"/>
<path d="M41.7684 41.8485C47.8842 35.7327 56.179 32.2969 64.828 32.2969C73.4771 32.2969 81.7719 35.7327 87.8877 41.8485C94.0035 47.9643 97.4393 56.2591 97.4393 64.9081H95.4628C95.4628 56.7832 92.2353 48.9912 86.4901 43.246C80.745 37.5009 72.9529 34.2733 64.828 34.2733C56.7032 34.2733 48.9111 37.5009 43.166 43.246C37.4208 48.9912 34.1932 56.7832 34.1932 64.9081H32.2168C32.2168 56.2591 35.6526 47.9643 41.7684 41.8485Z" fill="url(#paint4_linear_23_2)"/>
<path d="M64.828 40.2026C58.2757 40.2026 51.9918 42.8055 47.3586 47.4387C42.7254 52.0719 40.1225 58.3558 40.1225 64.9081H42.099C42.099 58.88 44.4936 53.0988 48.7562 48.8362C53.0187 44.5737 58.7999 42.1791 64.828 42.1791C70.8561 42.1791 76.6374 44.5737 80.8999 48.8362C85.1624 53.0988 87.5571 58.88 87.5571 64.9081H89.5335C89.5335 58.3558 86.9306 52.0719 82.2975 47.4387C77.6643 42.8055 71.3803 40.2026 64.828 40.2026Z" fill="url(#paint5_linear_23_2)"/>
<path d="M64.828 129.141C56.3927 129.141 48.0399 127.479 40.2466 124.251C32.4534 121.023 25.3722 116.291 19.4075 110.327C13.4428 104.362 8.71137 97.2809 5.48329 89.4876C2.25522 81.6944 0.59375 73.3416 0.59375 64.9062H2.57019C2.57019 73.0821 4.18053 81.1778 7.30928 88.7313C10.438 96.2848 15.0239 103.148 20.8051 108.929C26.5863 114.71 33.4495 119.296 41.003 122.425C48.5565 125.554 56.6522 127.164 64.828 127.164C73.0038 127.164 81.0996 125.554 88.6531 122.425C96.2066 119.296 103.07 114.71 108.851 108.929C114.632 103.148 119.218 96.2848 122.347 88.7313C125.476 81.1778 127.086 73.0821 127.086 64.9063H129.062C129.062 73.3416 127.401 81.6944 124.173 89.4877C120.945 97.2809 116.213 104.362 110.249 110.327C104.284 116.291 97.2027 121.023 89.4094 124.251C81.6162 127.479 73.2634 129.141 64.828 129.141Z" fill="url(#paint6_linear_23_2)"/>
<path d="M64.828 121.235C49.8888 121.235 35.5614 115.3 24.9978 104.737C14.4341 94.1729 8.49951 79.8455 8.49951 64.9063H10.4759C10.4759 79.3213 16.2023 93.146 26.3953 103.339C36.5883 113.532 50.413 119.258 64.828 119.258C79.2431 119.258 93.0678 113.532 103.261 103.339C113.454 93.146 119.18 79.3213 119.18 64.9063H121.157C121.157 79.8455 115.222 94.1729 104.658 104.737C94.0947 115.3 79.7673 121.235 64.828 121.235Z" fill="url(#paint7_linear_23_2)"/>
<path d="M30.588 99.1463C39.669 108.227 51.9855 113.329 64.828 113.329C77.6705 113.329 89.9871 108.227 99.0681 99.1463C108.149 90.0653 113.251 77.7488 113.251 64.9063H111.274C111.274 77.2246 106.381 89.0384 97.6705 97.7488C88.9602 106.459 77.1464 111.353 64.828 111.353C52.5097 111.353 40.6959 106.459 31.9855 97.7488C23.2751 89.0384 18.3817 77.2246 18.3817 64.9063H16.4053C16.4053 77.7488 21.5069 90.0653 30.588 99.1463Z" fill="url(#paint8_linear_23_2)"/>
<path d="M64.828 105.423C54.0823 105.423 43.7766 101.155 36.1782 93.5561C28.5798 85.9577 24.311 75.652 24.311 64.9063H26.2875C26.2875 75.1279 30.348 84.9308 37.5757 92.1586C44.8035 99.3863 54.6064 103.447 64.828 103.447C75.0496 103.447 84.8526 99.3863 92.0803 92.1586C99.3081 84.9308 103.369 75.1278 103.369 64.9063H105.345C105.345 75.652 101.076 85.9577 93.4779 93.5561C85.8795 101.155 75.5738 105.423 64.828 105.423Z" fill="url(#paint9_linear_23_2)"/>
<path d="M41.7684 87.9659C47.8842 94.0817 56.179 97.5175 64.828 97.5175C73.4771 97.5175 81.7719 94.0817 87.8877 87.9659C94.0035 81.8501 97.4393 73.5553 97.4393 64.9063H95.4628C95.4628 73.0311 92.2353 80.8232 86.4901 86.5683C80.745 92.3135 72.9529 95.5411 64.828 95.5411C56.7032 95.5411 48.9111 92.3135 43.166 86.5683C37.4208 80.8232 34.1932 73.0311 34.1932 64.9063H32.2168C32.2168 73.5553 35.6526 81.8501 41.7684 87.9659Z" fill="url(#paint10_linear_23_2)"/>
<path d="M64.828 89.6117C58.2757 89.6117 51.9918 87.0089 47.3586 82.3757C42.7254 77.7425 40.1225 71.4586 40.1225 64.9063H42.099C42.099 70.9344 44.4936 76.7156 48.7562 80.9781C53.0187 85.2406 58.7999 87.6353 64.828 87.6353C70.8561 87.6353 76.6374 85.2406 80.8999 80.9781C85.1624 76.7156 87.5571 70.9344 87.5571 64.9063H89.5335C89.5335 71.4586 86.9306 77.7425 82.2975 82.3757C77.6643 87.0089 71.3803 89.6117 64.828 89.6117Z" fill="url(#paint11_linear_23_2)"/>
<defs>
<linearGradient id="paint0_linear_23_2" x1="64.828" y1="0.673828" x2="64.828" y2="67.8728" gradientUnits="userSpaceOnUse">
<stop stop-color="#2B2B2B"/>
<stop offset="1" stop-color="#2B2B2B" stop-opacity="0"/>
</linearGradient>
<linearGradient id="paint1_linear_23_2" x1="64.828" y1="0.673828" x2="64.828" y2="67.8728" gradientUnits="userSpaceOnUse">
<stop stop-color="#2B2B2B"/>
<stop offset="1" stop-color="#2B2B2B" stop-opacity="0"/>
</linearGradient>
<linearGradient id="paint2_linear_23_2" x1="64.828" y1="0.673828" x2="64.828" y2="67.8728" gradientUnits="userSpaceOnUse">
<stop stop-color="#2B2B2B"/>
<stop offset="1" stop-color="#2B2B2B" stop-opacity="0"/>
</linearGradient>
<linearGradient id="paint3_linear_23_2" x1="64.828" y1="0.673828" x2="64.828" y2="67.8728" gradientUnits="userSpaceOnUse">
<stop stop-color="#2B2B2B"/>
<stop offset="1" stop-color="#2B2B2B" stop-opacity="0"/>
</linearGradient>
<linearGradient id="paint4_linear_23_2" x1="64.828" y1="0.673828" x2="64.828" y2="67.8728" gradientUnits="userSpaceOnUse">
<stop stop-color="#2B2B2B"/>
<stop offset="1" stop-color="#2B2B2B" stop-opacity="0"/>
</linearGradient>
<linearGradient id="paint5_linear_23_2" x1="64.828" y1="0.673828" x2="64.828" y2="67.8728" gradientUnits="userSpaceOnUse">
<stop stop-color="#2B2B2B"/>
<stop offset="1" stop-color="#2B2B2B" stop-opacity="0"/>
</linearGradient>
<linearGradient id="paint6_linear_23_2" x1="64.828" y1="129.141" x2="64.828" y2="61.9416" gradientUnits="userSpaceOnUse">
<stop stop-color="#2B2B2B"/>
<stop offset="1" stop-color="#2B2B2B" stop-opacity="0"/>
</linearGradient>
<linearGradient id="paint7_linear_23_2" x1="64.828" y1="129.141" x2="64.828" y2="61.9416" gradientUnits="userSpaceOnUse">
<stop stop-color="#2B2B2B"/>
<stop offset="1" stop-color="#2B2B2B" stop-opacity="0"/>
</linearGradient>
<linearGradient id="paint8_linear_23_2" x1="64.828" y1="129.141" x2="64.828" y2="61.9416" gradientUnits="userSpaceOnUse">
<stop stop-color="#2B2B2B"/>
<stop offset="1" stop-color="#2B2B2B" stop-opacity="0"/>
</linearGradient>
<linearGradient id="paint9_linear_23_2" x1="64.828" y1="129.141" x2="64.828" y2="61.9416" gradientUnits="userSpaceOnUse">
<stop stop-color="#2B2B2B"/>
<stop offset="1" stop-color="#2B2B2B" stop-opacity="0"/>
</linearGradient>
<linearGradient id="paint10_linear_23_2" x1="64.828" y1="129.141" x2="64.828" y2="61.9416" gradientUnits="userSpaceOnUse">
<stop stop-color="#2B2B2B"/>
<stop offset="1" stop-color="#2B2B2B" stop-opacity="0"/>
</linearGradient>
<linearGradient id="paint11_linear_23_2" x1="64.828" y1="129.141" x2="64.828" y2="61.9416" gradientUnits="userSpaceOnUse">
<stop stop-color="#2B2B2B"/>
<stop offset="1" stop-color="#2B2B2B" stop-opacity="0"/>
</linearGradient>
</defs>
</svg>
