<svg width="256" height="256" viewBox="0 0 256 256" fill="none" xmlns="http://www.w3.org/2000/svg">
<g clip-path="url(#clip0_1553_2225)">
<mask id="mask0_1553_2225" style="mask-type:luminance" maskUnits="userSpaceOnUse" x="0" y="0" width="256" height="256">
<path d="M255.221 0H0V256H255.221V0Z" fill="white"/>
</mask>
<g mask="url(#mask0_1553_2225)">
<mask id="mask1_1553_2225" style="mask-type:luminance" maskUnits="userSpaceOnUse" x="0" y="7" width="256" height="249">
<path d="M255.221 7.75757H0V256H255.221V7.75757Z" fill="white"/>
</mask>
<g mask="url(#mask1_1553_2225)">
<path d="M66.9197 8.1123C48.8896 9.75621 31.9706 17.3484 19.6761 29.2883C8.5377 40.1032 1.89024 53.6223 0.333975 68.5684C0.0449548 71.4236 0.000490021 79.9244 0.000490021 133.697C0.000490021 201.702 -0.0662072 198.35 1.35667 205.12C7.13706 232.698 32.6598 252.554 66.3638 255.691C70.8326 256.102 184.596 256.102 188.753 255.691C205.917 253.982 220.257 248.596 231.973 239.425C237.219 235.316 242.8 229.216 246.224 223.851C249.936 218.011 252.96 210.224 254.228 203.195C255.205 197.787 255.205 197.83 255.228 133.762C255.228 68.5471 255.228 69.2174 254.116 63.4639C252.093 53.0599 248.025 44.2562 241.266 35.561C238.91 32.5544 231.973 25.8491 228.66 23.4048C216.655 14.5581 202.981 9.45339 187.753 8.09066C182.683 7.63645 71.9221 7.65806 66.9197 8.1123ZM186.641 64.9348C195.312 66.081 202.96 68.3089 210.363 71.9213C226.882 79.9461 239.376 93.6378 244.778 109.644C247.025 116.285 247.647 120.286 247.824 129.349C248.002 138.629 247.536 143.95 246.091 149.552C239.221 175.854 214.743 195.862 185.752 198.869C182.773 199.171 176.481 199.215 126.058 199.128C64.7413 199.063 68.9875 199.15 62.8068 197.895C48.8449 195.105 36.3059 188.508 26.2347 178.645C16.1412 168.759 10.0051 157.058 7.87075 143.56C7.38163 140.554 7.18152 127.208 7.53724 122.947C8.40432 112.867 12.2506 102.636 18.4089 93.9625C21.8549 89.1388 27.7465 83.039 32.2596 79.6214C44.2207 70.6234 57.7159 65.5837 72.3668 64.6536C73.8343 64.5671 99.4903 64.5023 129.393 64.5236C179.682 64.5671 183.974 64.5888 186.641 64.9348Z" fill="#151515"/>
</g>
<path d="M69.2288 60.1212C73.8945 66.0558 77.4836 77.9249 77.4836 96.2521V130.463C77.4836 176.368 106.376 183.699 128.448 183.699C164.339 183.699 169.902 154.55 169.902 130.463V104.63C169.902 77.4012 178.874 64.6594 184.976 60.1212H149.264C156.622 64.6594 167.389 77.4012 167.389 104.63V130.463C167.389 157.168 158.237 178.987 133.653 178.987C114.092 178.987 106.196 167.99 106.196 137.968V96.2521C106.196 77.9249 109.785 66.0558 114.45 60.1212H69.2288Z" fill="#151515"/>
<path d="M197.381 185.27C206.713 185.27 213.353 178.463 213.353 169.736C213.353 161.183 206.713 153.852 197.381 153.852C188.23 153.852 181.052 161.183 181.052 169.736C181.052 178.463 188.23 185.27 197.381 185.27Z" fill="#FE5115"/>
</g>
</g>
<defs>
<clipPath id="clip0_1553_2225">
<rect width="256" height="256" fill="white"/>
</clipPath>
</defs>
</svg>
