<svg width="24" height="24" viewBox="0 0 24 24" fill="none" xmlns="http://www.w3.org/2000/svg">
<rect width="24" height="24" rx="12" fill="#181818"/>
<path fill-rule="evenodd" clip-rule="evenodd" d="M12.0474 12.2912L12.0474 15.3245C11.5241 15.3245 10.0921 14.7334 9.72205 14.3646C9.35201 13.9959 8.75885 12.5689 8.75885 12.0474C8.75885 11.526 9.35201 10.099 9.72205 9.73022C10.0921 9.36148 11.5241 8.77039 12.0474 8.77039L12.0474 12.2912ZM12.0474 8.77039C11.1752 8.77039 10.3388 9.11565 9.72205 9.73022C9.10532 10.3448 8.75885 11.1783 8.75885 12.0474C8.75885 12.9166 9.10532 13.7501 9.72205 14.3646C10.3388 14.9792 11.1752 15.3245 12.0474 15.3245L12.0474 19.2569C8.51417 19.2569 6.04773 17.4899 4.48763 15.7636C3.63703 14.8158 2.92413 13.7537 2.36977 12.6085C2.32441 12.5123 2.281 12.4153 2.23955 12.3175L2.23165 12.2991L2.23034 12.2939L2.22902 12.2912C2.16609 12.1348 2.16609 11.9601 2.22902 11.8036L2.31584 11.839C2.28657 11.8276 2.25762 11.8166 2.22902 11.8036V11.801L2.23165 11.7958L2.23955 11.7774C2.28011 11.679 2.32398 11.5819 2.37109 11.4864C2.92554 10.3416 3.63844 9.27997 4.48894 8.33258C6.04642 6.60493 8.51286 4.83795 12.0474 4.83795L12.0474 8.77039ZM12.0474 8.77039V15.3245C12.5707 15.3245 14.0028 14.7334 14.3728 14.3646C14.7429 13.9959 15.336 12.5689 15.336 12.0474C15.336 11.526 14.7429 10.099 14.3728 9.73022C14.0028 9.36148 12.5707 8.77039 12.0474 8.77039ZM12.0474 15.3245C12.9196 15.3245 13.7561 14.9792 14.3728 14.3646C14.9895 13.7501 15.336 12.9166 15.336 12.0474C15.336 11.1783 14.9895 10.3448 14.3728 9.73022C13.7561 9.11565 12.9196 8.77039 12.0474 8.77039L12.0474 4.83795C15.5807 4.83795 18.0471 6.60493 19.6072 8.33258C20.4578 9.27995 21.1707 10.3416 21.7251 11.4864C21.7704 11.5825 21.8138 11.6796 21.8553 11.7774L21.8619 11.7958L21.8645 11.801L21.8658 11.8036C21.9288 11.9601 21.9288 12.1348 21.8658 12.2912V12.2939L21.8619 12.2991L21.8553 12.3175C21.815 12.416 21.7712 12.5131 21.7238 12.6085C21.1693 13.7533 20.4564 14.8149 19.6059 15.7623C18.0485 17.4899 15.582 19.2569 12.0474 19.2569L12.0474 15.3245Z" fill="white"/>
<circle cx="12.0474" cy="12.0474" r="5.88142" fill="#FE5115"/>
</svg>
