<svg width="565" height="555" viewBox="0 0 565 555" fill="none" xmlns="http://www.w3.org/2000/svg">
<path d="M21.625 382C15.8897 382 10.3893 384.278 6.33382 388.334C2.27834 392.389 0 397.89 0 403.625L0 490.125C0 495.86 2.27834 501.361 6.33382 505.416C10.3893 509.472 15.8897 511.75 21.625 511.75H48.6562C50.3348 511.75 51.9904 512.141 53.4917 512.891C54.9931 513.642 56.2991 514.732 57.3063 516.075L77.85 543.463C78.8571 544.806 80.1631 545.896 81.6645 546.647C83.1659 547.397 84.8214 547.788 86.5 547.788C88.1786 547.788 89.8341 547.397 91.3355 546.647C92.8369 545.896 94.1429 544.806 95.15 543.463L115.694 516.075C116.701 514.732 118.007 513.642 119.508 512.891C121.01 512.141 122.665 511.75 124.344 511.75H151.375C157.11 511.75 162.611 509.472 166.666 505.416C170.722 501.361 173 495.86 173 490.125V403.625C173 397.89 170.722 392.389 166.666 388.334C162.611 384.278 157.11 382 151.375 382H21.625ZM86.5 425.174C104.492 406.674 149.483 439.047 86.5 480.664C23.5172 439.036 68.508 406.674 86.5 425.174Z" fill="white"/>
<path fill-rule="evenodd" clip-rule="evenodd" d="M445.738 59.9422C439.753 46.2895 445.968 30.3697 459.621 24.3843C473.274 18.399 489.194 24.6146 495.179 38.2674L497.888 44.4475L504.068 41.7381C517.721 35.7528 533.641 41.9684 539.626 55.6211C545.612 69.2739 539.396 85.1937 525.743 91.1791L519.563 93.8884L522.273 100.069C528.258 113.721 522.042 129.641 508.39 135.626C494.737 141.612 478.817 135.396 472.832 121.743L470.122 115.563L463.942 118.273C450.289 124.258 434.37 118.042 428.384 104.39C422.399 90.7369 428.615 74.8171 442.267 68.8317L448.447 66.1223L445.738 59.9422ZM458.078 92.2927C469.111 90.2766 488.77 98.9056 496.875 109.361C494.677 96.3163 501.651 76.0109 510.609 69.2631C499.577 71.2792 479.918 62.6502 471.813 52.1948C474.011 65.2395 467.037 85.5448 458.078 92.2927Z" fill="white"/>
<path d="M143 1C143 1 144.642 20.9169 144.95 36.3686C153.846 27.9866 165.669 18.3727 165.669 18.3727C165.669 18.3727 156.076 30.17 147.701 39.062C161.528 39.3994 179 41 179 41C179 41 161.493 42.6038 147.66 42.939C156.035 51.8309 165.627 63.6275 165.627 63.6275C165.627 63.6275 153.84 54.043 144.95 45.6701C144.639 61.1163 143 81 143 81C143 81 141.363 61.1493 141.051 45.7086C132.165 54.0724 120.414 63.6275 120.414 63.6275C120.414 63.6275 130.006 51.8318 138.381 42.94C124.541 42.6069 107 41 107 41C107 41 124.507 39.3962 138.34 39.061C129.965 30.1691 120.373 18.3727 120.373 18.3727C120.373 18.3727 132.16 27.9571 141.05 36.33C141.361 20.8838 143 1 143 1Z" fill="white"/>
<path d="M233 152C233 152 233.821 161.958 233.975 169.684C238.423 165.493 244.335 160.686 244.335 160.686C244.335 160.686 239.538 166.585 235.35 171.031C242.264 171.2 251 172 251 172C251 172 242.247 172.802 235.33 172.97C239.518 177.415 244.314 183.314 244.314 183.314C244.314 183.314 238.42 178.521 233.975 174.335C233.82 182.058 233 192 233 192C233 192 232.182 182.075 232.026 174.354C227.583 178.536 221.707 183.314 221.707 183.314C221.707 183.314 226.503 177.416 230.69 172.97C223.771 172.803 215 172 215 172C215 172 223.753 171.198 230.67 171.03C226.482 166.585 221.686 160.686 221.686 160.686C221.686 160.686 227.58 165.479 232.025 169.665C232.18 161.942 233 152 233 152Z" fill="white"/>
<path d="M17.5 249C17.5 249 18.2983 258.958 18.4481 266.684C22.7723 262.493 28.5197 257.686 28.5197 257.686C28.5197 257.686 23.8565 263.585 19.7851 268.031C26.5066 268.2 35 269 35 269C35 269 26.4898 269.802 19.7653 269.97C23.8366 274.415 28.4994 280.314 28.4994 280.314C28.4994 280.314 22.7696 275.521 18.4478 271.335C18.2969 279.058 17.5 289 17.5 289C17.5 289 16.7044 279.075 16.5526 271.354C12.2331 275.536 6.52079 280.314 6.52079 280.314C6.52079 280.314 11.1833 274.416 15.2546 269.97C8.52689 269.803 0 269 0 269C0 269 8.51011 268.198 15.2347 268.03C11.1634 263.585 6.50056 257.686 6.50056 257.686C6.50056 257.686 12.2304 262.479 16.5522 266.665C16.7031 258.942 17.5 249 17.5 249Z" fill="white"/>
<path d="M386.5 249C386.5 249 387.298 258.958 387.448 266.684C391.772 262.493 397.52 257.686 397.52 257.686C397.52 257.686 392.857 263.585 388.785 268.031C395.507 268.2 404 269 404 269C404 269 395.49 269.802 388.765 269.97C392.837 274.415 397.499 280.314 397.499 280.314C397.499 280.314 391.77 275.521 387.448 271.335C387.297 279.058 386.5 289 386.5 289C386.5 289 385.704 279.075 385.553 271.354C381.233 275.536 375.521 280.314 375.521 280.314C375.521 280.314 380.183 274.416 384.255 269.97C377.527 269.803 369 269 369 269C369 269 377.51 268.198 384.235 268.03C380.163 263.585 375.501 257.686 375.501 257.686C375.501 257.686 381.23 262.479 385.552 266.665C385.703 258.942 386.5 249 386.5 249Z" fill="white"/>
<path d="M474.805 387.111C474.805 387.111 477.718 393.742 479.661 398.996C481.578 395.111 484.309 390.469 484.309 390.469C484.309 390.469 482.57 395.604 480.884 399.604C485.458 398.141 491.378 396.693 491.378 396.693C491.378 396.693 485.829 399.241 481.333 400.936C485.139 403.024 489.691 405.967 489.691 405.967C489.691 405.967 484.683 404.031 480.769 402.18C482.509 407.504 484.342 414.498 484.342 414.498C484.342 414.498 481.439 407.889 479.496 402.639C477.579 406.517 474.865 411.13 474.865 411.13C474.865 411.13 476.604 405.996 478.29 401.996C473.712 403.462 467.769 404.915 467.769 404.915C467.769 404.915 473.318 402.367 477.814 400.673C474.008 398.585 469.456 395.642 469.456 395.642C469.456 395.642 474.464 397.577 478.377 399.428C476.638 394.105 474.805 387.111 474.805 387.111Z" fill="white"/>
<path d="M266.452 416.302C266.452 416.302 275.338 434.203 281.334 448.447C286.502 437.371 293.936 424.069 293.936 424.069C293.936 424.069 289.382 438.576 284.885 449.933C297.858 445.138 314.685 440.169 314.685 440.169C314.685 440.169 299.01 448.128 286.279 453.551C297.347 458.719 310.62 466.136 310.62 466.136C310.62 466.136 296.125 461.586 284.77 457.09C290.189 471.558 296.013 490.64 296.013 490.64C296.013 490.64 287.157 472.799 281.161 458.567C275.995 469.622 268.606 482.843 268.606 482.843C268.606 482.843 273.16 468.338 277.657 456.981C264.674 461.785 247.78 466.774 247.78 466.774C247.78 466.774 263.455 458.815 276.186 453.391C265.118 448.224 251.846 440.806 251.846 440.806C251.846 440.806 266.34 445.357 277.695 449.852C272.276 435.385 266.452 416.302 266.452 416.302Z" fill="white"/>
</svg>
