<svg width="367" height="62" viewBox="0 0 367 62" fill="none" xmlns="http://www.w3.org/2000/svg">
<path d="M5.54999 5.39995L3.45 3.29995L5.54999 1.19994C5.74999 0.999942 5.74999 0.799951 5.54999 0.599951C5.34999 0.399951 5.15 0.399951 4.95 0.599951L2.85 2.69994L0.750006 0.599951C0.550006 0.399951 0.35 0.399951 0.15 0.599951C-0.05 0.799951 -0.05 0.999942 0.15 1.19994L2.25001 3.29995L0.15 5.39995C-0.05 5.59995 -0.05 5.79995 0.15 5.99995C0.35 6.19994 0.550006 6.19994 0.750006 5.99995L2.85 3.89995L4.95 5.99995C5.15 6.19994 5.34999 6.19994 5.54999 5.99995C5.74999 5.89995 5.74999 5.59995 5.54999 5.39995Z" fill="#FE5115"/>
<path d="M22.95 5.39995L20.85 3.29995L22.95 1.19994C23.15 0.999942 23.15 0.799951 22.95 0.599951C22.75 0.399951 22.55 0.399951 22.35 0.599951L20.25 2.69994L18.15 0.599951C17.95 0.399951 17.75 0.399951 17.55 0.599951C17.35 0.799951 17.35 0.999942 17.55 1.19994L19.65 3.29995L17.55 5.39995C17.35 5.59995 17.35 5.79995 17.55 5.99995C17.75 6.19994 17.95 6.19994 18.15 5.99995L20.25 3.89995L22.35 5.99995C22.55 6.19994 22.75 6.19994 22.95 5.99995C23.15 5.89995 23.15 5.59995 22.95 5.39995Z" fill="#FE5115"/>
<path d="M40.25 5.39995L38.15 3.29995L40.25 1.19994C40.45 0.999942 40.45 0.799951 40.25 0.599951C40.05 0.399951 39.85 0.399951 39.65 0.599951L37.5499 2.69994L35.45 0.599951C35.25 0.399951 35.05 0.399951 34.85 0.599951C34.65 0.799951 34.65 0.999942 34.85 1.19994L36.95 3.29995L34.85 5.39995C34.65 5.59995 34.65 5.79995 34.85 5.99995C35.05 6.19994 35.25 6.19994 35.45 5.99995L37.5499 3.89995L39.65 5.99995C39.85 6.19994 40.05 6.19994 40.25 5.99995C40.45 5.89995 40.45 5.59995 40.25 5.39995Z" fill="#FE5115"/>
<path d="M57.65 5.39995L55.55 3.29995L57.65 1.19994C57.85 0.999942 57.85 0.799951 57.65 0.599951C57.45 0.399951 57.25 0.399951 57.05 0.599951L54.95 2.69994L52.85 0.599951C52.65 0.399951 52.45 0.399951 52.25 0.599951C52.05 0.799951 52.05 0.999942 52.25 1.19994L54.35 3.29995L52.25 5.39995C52.05 5.59995 52.05 5.79995 52.25 5.99995C52.45 6.19994 52.65 6.19994 52.85 5.99995L54.95 3.89995L57.05 5.99995C57.25 6.19994 57.45 6.19994 57.65 5.99995C57.85 5.89995 57.85 5.59995 57.65 5.39995Z" fill="#FE5115"/>
<path d="M75.05 5.39995L72.95 3.29995L75.05 1.19994C75.25 0.999942 75.25 0.799951 75.05 0.599951C74.85 0.399951 74.65 0.399951 74.45 0.599951L72.35 2.69994L70.25 0.599951C70.05 0.399951 69.85 0.399951 69.65 0.599951C69.45 0.799951 69.45 0.999942 69.65 1.19994L71.75 3.29995L69.65 5.39995C69.45 5.59995 69.45 5.79995 69.65 5.99995C69.85 6.19994 70.05 6.19994 70.25 5.99995L72.35 3.89995L74.45 5.99995C74.65 6.19994 74.85 6.19994 75.05 5.99995C75.25 5.89995 75.25 5.59995 75.05 5.39995Z" fill="#FE5115"/>
<path d="M92.35 5.39995L90.2501 3.29995L92.35 1.19994C92.55 0.999942 92.55 0.799951 92.35 0.599951C92.15 0.399951 91.9501 0.399951 91.7501 0.599951L89.65 2.69994L87.55 0.599951C87.35 0.399951 87.15 0.399951 86.95 0.599951C86.75 0.799951 86.75 0.999942 86.95 1.19994L89.05 3.29995L86.95 5.39995C86.75 5.59995 86.75 5.79995 86.95 5.99995C87.15 6.19994 87.35 6.19994 87.55 5.99995L89.65 3.89995L91.7501 5.99995C91.9501 6.19994 92.15 6.19994 92.35 5.99995C92.55 5.89995 92.55 5.59995 92.35 5.39995Z" fill="#FE5115"/>
<path d="M109.75 5.39995L107.65 3.29995L109.75 1.19994C109.95 0.999942 109.95 0.799951 109.75 0.599951C109.55 0.399951 109.35 0.399951 109.15 0.599951L107.05 2.69994L104.95 0.599951C104.75 0.399951 104.55 0.399951 104.35 0.599951C104.15 0.799951 104.15 0.999942 104.35 1.19994L106.45 3.29995L104.35 5.39995C104.15 5.59995 104.15 5.79995 104.35 5.99995C104.55 6.19994 104.75 6.19994 104.95 5.99995L107.05 3.89995L109.15 5.99995C109.35 6.19994 109.55 6.19994 109.75 5.99995C109.95 5.89995 109.95 5.59995 109.75 5.39995Z" fill="#FE5115"/>
<path d="M127.15 5.39995L125.05 3.29995L127.15 1.19994C127.35 0.999942 127.35 0.799951 127.15 0.599951C126.95 0.399951 126.75 0.399951 126.55 0.599951L124.45 2.69994L122.35 0.599951C122.15 0.399951 121.95 0.399951 121.75 0.599951C121.55 0.799951 121.55 0.999942 121.75 1.19994L123.85 3.29995L121.75 5.39995C121.55 5.59995 121.55 5.79995 121.75 5.99995C121.95 6.19994 122.15 6.19994 122.35 5.99995L124.45 3.89995L126.55 5.99995C126.75 6.19994 126.95 6.19994 127.15 5.99995C127.35 5.89995 127.35 5.59995 127.15 5.39995Z" fill="#FE5115"/>
<path d="M144.45 5.39995L142.35 3.29995L144.45 1.19994C144.65 0.999942 144.65 0.799951 144.45 0.599951C144.25 0.399951 144.05 0.399951 143.85 0.599951L141.75 2.69994L139.65 0.599951C139.45 0.399951 139.25 0.399951 139.05 0.599951C138.85 0.799951 138.85 0.999942 139.05 1.19994L141.15 3.29995L139.05 5.39995C138.85 5.59995 138.85 5.79995 139.05 5.99995C139.25 6.19994 139.45 6.19994 139.65 5.99995L141.75 3.89995L143.85 5.99995C144.05 6.19994 144.25 6.19994 144.45 5.99995C144.65 5.89995 144.65 5.59995 144.45 5.39995Z" fill="#FE5115"/>
<path d="M161.85 5.39995L159.75 3.29995L161.85 1.19994C162.05 0.999942 162.05 0.799951 161.85 0.599951C161.65 0.399951 161.45 0.399951 161.25 0.599951L159.15 2.69994L157.05 0.599951C156.85 0.399951 156.65 0.399951 156.45 0.599951C156.25 0.799951 156.25 0.999942 156.45 1.19994L158.55 3.29995L156.45 5.39995C156.25 5.59995 156.25 5.79995 156.45 5.99995C156.65 6.19994 156.85 6.19994 157.05 5.99995L159.15 3.89995L161.25 5.99995C161.45 6.19994 161.65 6.19994 161.85 5.99995C162.05 5.89995 162.05 5.59995 161.85 5.39995Z" fill="#FE5115"/>
<path d="M179.25 5.39995L177.15 3.29995L179.25 1.19994C179.45 0.999942 179.45 0.799951 179.25 0.599951C179.05 0.399951 178.85 0.399951 178.65 0.599951L176.55 2.69994L174.45 0.599951C174.25 0.399951 174.05 0.399951 173.85 0.599951C173.65 0.799951 173.65 0.999942 173.85 1.19994L175.95 3.29995L173.85 5.39995C173.65 5.59995 173.65 5.79995 173.85 5.99995C174.05 6.19994 174.25 6.19994 174.45 5.99995L176.55 3.89995L178.65 5.99995C178.85 6.19994 179.05 6.19994 179.25 5.99995C179.45 5.79995 179.45 5.59995 179.25 5.39995Z" fill="#FE5115"/>
<path d="M5.54999 19.3L3.45 17.2L5.54999 15.1C5.74999 14.9 5.74999 14.7 5.54999 14.5C5.34999 14.3 5.15 14.3 4.95 14.5L2.85 16.6L0.750006 14.5C0.550006 14.3 0.35 14.3 0.15 14.5C-0.05 14.7 -0.05 14.9 0.15 15.1L2.25001 17.2L0.15 19.3C-0.05 19.5 -0.05 19.7 0.15 19.9C0.35 20.1 0.550006 20.1 0.750006 19.9L2.85 17.8L4.95 19.9C5.15 20.1 5.34999 20.1 5.54999 19.9C5.74999 19.7 5.74999 19.4 5.54999 19.3Z" fill="#FE5115"/>
<path d="M22.95 19.3L20.85 17.2L22.95 15.1C23.15 14.9 23.15 14.7 22.95 14.5C22.75 14.3 22.55 14.3 22.35 14.5L20.25 16.6L18.15 14.5C17.95 14.3 17.75 14.3 17.55 14.5C17.35 14.7 17.35 14.9 17.55 15.1L19.65 17.2L17.55 19.3C17.35 19.5 17.35 19.7 17.55 19.9C17.75 20.1 17.95 20.1 18.15 19.9L20.25 17.8L22.35 19.9C22.55 20.1 22.75 20.1 22.95 19.9C23.15 19.7 23.15 19.4 22.95 19.3Z" fill="#FE5115"/>
<path d="M40.25 19.3L38.15 17.2L40.25 15.1C40.45 14.9 40.45 14.7 40.25 14.5C40.05 14.3 39.85 14.3 39.65 14.5L37.5499 16.6L35.45 14.5C35.25 14.3 35.05 14.3 34.85 14.5C34.65 14.7 34.65 14.9 34.85 15.1L36.95 17.2L34.85 19.3C34.65 19.5 34.65 19.7 34.85 19.9C35.05 20.1 35.25 20.1 35.45 19.9L37.5499 17.8L39.65 19.9C39.85 20.1 40.05 20.1 40.25 19.9C40.45 19.7 40.45 19.4 40.25 19.3Z" fill="#FE5115"/>
<path d="M57.65 19.3L55.55 17.2L57.65 15.1C57.85 14.9 57.85 14.7 57.65 14.5C57.45 14.3 57.25 14.3 57.05 14.5L54.95 16.6L52.85 14.5C52.65 14.3 52.45 14.3 52.25 14.5C52.05 14.7 52.05 14.9 52.25 15.1L54.35 17.2L52.25 19.3C52.05 19.5 52.05 19.7 52.25 19.9C52.45 20.1 52.65 20.1 52.85 19.9L54.95 17.8L57.05 19.9C57.25 20.1 57.45 20.1 57.65 19.9C57.85 19.7 57.85 19.4 57.65 19.3Z" fill="#FE5115"/>
<path d="M75.05 19.3L72.95 17.2L75.05 15.1C75.25 14.9 75.25 14.7 75.05 14.5C74.85 14.3 74.65 14.3 74.45 14.5L72.35 16.6L70.25 14.5C70.05 14.3 69.85 14.3 69.65 14.5C69.45 14.7 69.45 14.9 69.65 15.1L71.75 17.2L69.65 19.3C69.45 19.5 69.45 19.7 69.65 19.9C69.85 20.1 70.05 20.1 70.25 19.9L72.35 17.8L74.45 19.9C74.65 20.1 74.85 20.1 75.05 19.9C75.25 19.7 75.25 19.4 75.05 19.3Z" fill="#FE5115"/>
<path d="M92.35 19.3L90.2501 17.2L92.35 15.1C92.55 14.9 92.55 14.7 92.35 14.5C92.15 14.3 91.9501 14.3 91.7501 14.5L89.65 16.6L87.55 14.5C87.35 14.3 87.15 14.3 86.95 14.5C86.75 14.7 86.75 14.9 86.95 15.1L89.05 17.2L86.95 19.3C86.75 19.5 86.75 19.7 86.95 19.9C87.15 20.1 87.35 20.1 87.55 19.9L89.65 17.8L91.7501 19.9C91.9501 20.1 92.15 20.1 92.35 19.9C92.55 19.7 92.55 19.4 92.35 19.3Z" fill="#FE5115"/>
<path d="M109.75 19.3L107.65 17.2L109.75 15.1C109.95 14.9 109.95 14.7 109.75 14.5C109.55 14.3 109.35 14.3 109.15 14.5L107.05 16.6L104.95 14.5C104.75 14.3 104.55 14.3 104.35 14.5C104.15 14.7 104.15 14.9 104.35 15.1L106.45 17.2L104.35 19.3C104.15 19.5 104.15 19.7 104.35 19.9C104.55 20.1 104.75 20.1 104.95 19.9L107.05 17.8L109.15 19.9C109.35 20.1 109.55 20.1 109.75 19.9C109.95 19.7 109.95 19.4 109.75 19.3Z" fill="#FE5115"/>
<path d="M127.15 19.3L125.05 17.2L127.15 15.1C127.35 14.9 127.35 14.7 127.15 14.5C126.95 14.3 126.75 14.3 126.55 14.5L124.45 16.6L122.35 14.5C122.15 14.3 121.95 14.3 121.75 14.5C121.55 14.7 121.55 14.9 121.75 15.1L123.85 17.2L121.75 19.3C121.55 19.5 121.55 19.7 121.75 19.9C121.95 20.1 122.15 20.1 122.35 19.9L124.45 17.8L126.55 19.9C126.75 20.1 126.95 20.1 127.15 19.9C127.35 19.7 127.35 19.4 127.15 19.3Z" fill="#FE5115"/>
<path d="M144.45 19.3L142.35 17.2L144.45 15.1C144.65 14.9 144.65 14.7 144.45 14.5C144.25 14.3 144.05 14.3 143.85 14.5L141.75 16.6L139.65 14.5C139.45 14.3 139.25 14.3 139.05 14.5C138.85 14.7 138.85 14.9 139.05 15.1L141.15 17.2L139.05 19.3C138.85 19.5 138.85 19.7 139.05 19.9C139.25 20.1 139.45 20.1 139.65 19.9L141.75 17.8L143.85 19.9C144.05 20.1 144.25 20.1 144.45 19.9C144.65 19.7 144.65 19.4 144.45 19.3Z" fill="#FE5115"/>
<path d="M161.85 19.3L159.75 17.2L161.85 15.1C162.05 14.9 162.05 14.7 161.85 14.5C161.65 14.3 161.45 14.3 161.25 14.5L159.15 16.6L157.05 14.5C156.85 14.3 156.65 14.3 156.45 14.5C156.25 14.7 156.25 14.9 156.45 15.1L158.55 17.2L156.45 19.3C156.25 19.5 156.25 19.7 156.45 19.9C156.65 20.1 156.85 20.1 157.05 19.9L159.15 17.8L161.25 19.9C161.45 20.1 161.65 20.1 161.85 19.9C162.05 19.7 162.05 19.4 161.85 19.3Z" fill="#FE5115"/>
<path d="M179.25 19.3L177.15 17.2L179.25 15.1C179.45 14.9 179.45 14.7 179.25 14.5C179.05 14.3 178.85 14.3 178.65 14.5L176.55 16.6L174.45 14.5C174.25 14.3 174.05 14.3 173.85 14.5C173.65 14.7 173.65 14.9 173.85 15.1L175.95 17.2L173.85 19.3C173.65 19.5 173.65 19.7 173.85 19.9C174.05 20.1 174.25 20.1 174.45 19.9L176.55 17.8L178.65 19.9C178.85 20.1 179.05 20.1 179.25 19.9C179.45 19.7 179.45 19.4 179.25 19.3Z" fill="#FE5115"/>
<path d="M5.54999 33.0999L3.45 30.9999L5.54999 28.8999C5.74999 28.6999 5.74999 28.4999 5.54999 28.2999C5.34999 28.0999 5.15 28.0999 4.95 28.2999L2.85 30.3999L0.750006 28.2999C0.550006 28.0999 0.35 28.0999 0.15 28.2999C-0.05 28.4999 -0.05 28.6999 0.15 28.8999L2.25001 30.9999L0.15 33.0999C-0.05 33.2999 -0.05 33.4999 0.15 33.6999C0.35 33.8999 0.550006 33.8999 0.750006 33.6999L2.85 31.5999L4.95 33.6999C5.15 33.8999 5.34999 33.8999 5.54999 33.6999C5.74999 33.5999 5.74999 33.2999 5.54999 33.0999Z" fill="#FE5115"/>
<path d="M22.95 33.0999L20.85 30.9999L22.95 28.8999C23.15 28.6999 23.15 28.4999 22.95 28.2999C22.75 28.0999 22.55 28.0999 22.35 28.2999L20.25 30.3999L18.15 28.2999C17.95 28.0999 17.75 28.0999 17.55 28.2999C17.35 28.4999 17.35 28.6999 17.55 28.8999L19.65 30.9999L17.55 33.0999C17.35 33.2999 17.35 33.4999 17.55 33.6999C17.75 33.8999 17.95 33.8999 18.15 33.6999L20.25 31.5999L22.35 33.6999C22.55 33.8999 22.75 33.8999 22.95 33.6999C23.15 33.5999 23.15 33.2999 22.95 33.0999Z" fill="#FE5115"/>
<path d="M40.25 33.0999L38.15 30.9999L40.25 28.8999C40.45 28.6999 40.45 28.4999 40.25 28.2999C40.05 28.0999 39.85 28.0999 39.65 28.2999L37.5499 30.3999L35.45 28.2999C35.25 28.0999 35.05 28.0999 34.85 28.2999C34.65 28.4999 34.65 28.6999 34.85 28.8999L36.95 30.9999L34.85 33.0999C34.65 33.2999 34.65 33.4999 34.85 33.6999C35.05 33.8999 35.25 33.8999 35.45 33.6999L37.5499 31.5999L39.65 33.6999C39.85 33.8999 40.05 33.8999 40.25 33.6999C40.45 33.5999 40.45 33.2999 40.25 33.0999Z" fill="#FE5115"/>
<path d="M57.65 33.0999L55.55 30.9999L57.65 28.8999C57.85 28.6999 57.85 28.4999 57.65 28.2999C57.45 28.0999 57.25 28.0999 57.05 28.2999L54.95 30.3999L52.85 28.2999C52.65 28.0999 52.45 28.0999 52.25 28.2999C52.05 28.4999 52.05 28.6999 52.25 28.8999L54.35 30.9999L52.25 33.0999C52.05 33.2999 52.05 33.4999 52.25 33.6999C52.45 33.8999 52.65 33.8999 52.85 33.6999L54.95 31.5999L57.05 33.6999C57.25 33.8999 57.45 33.8999 57.65 33.6999C57.85 33.5999 57.85 33.2999 57.65 33.0999Z" fill="#FE5115"/>
<path d="M75.05 33.0999L72.95 30.9999L75.05 28.8999C75.25 28.6999 75.25 28.4999 75.05 28.2999C74.85 28.0999 74.65 28.0999 74.45 28.2999L72.35 30.3999L70.15 28.2999C69.95 28.0999 69.75 28.0999 69.55 28.2999C69.35 28.4999 69.35 28.6999 69.55 28.8999L71.65 30.9999L69.55 33.0999C69.35 33.2999 69.35 33.4999 69.55 33.6999C69.75 33.8999 69.95 33.8999 70.15 33.6999L72.25 31.5999L74.35 33.6999C74.55 33.8999 74.75 33.8999 74.95 33.6999C75.25 33.5999 75.25 33.2999 75.05 33.0999Z" fill="#FE5115"/>
<path d="M92.35 33.0999L90.2501 30.9999L92.35 28.8999C92.55 28.6999 92.55 28.4999 92.35 28.2999C92.15 28.0999 91.9501 28.0999 91.7501 28.2999L89.65 30.3999L87.55 28.2999C87.35 28.0999 87.15 28.0999 86.95 28.2999C86.75 28.4999 86.75 28.6999 86.95 28.8999L89.05 30.9999L86.95 33.0999C86.75 33.2999 86.75 33.4999 86.95 33.6999C87.15 33.8999 87.35 33.8999 87.55 33.6999L89.65 31.5999L91.7501 33.6999C91.9501 33.8999 92.15 33.8999 92.35 33.6999C92.55 33.5999 92.55 33.2999 92.35 33.0999Z" fill="#FE5115"/>
<path d="M109.75 33.0999L107.65 30.9999L109.75 28.8999C109.95 28.6999 109.95 28.4999 109.75 28.2999C109.55 28.0999 109.35 28.0999 109.15 28.2999L107.05 30.3999L104.95 28.2999C104.75 28.0999 104.55 28.0999 104.35 28.2999C104.15 28.4999 104.15 28.6999 104.35 28.8999L106.45 30.9999L104.35 33.0999C104.15 33.2999 104.15 33.4999 104.35 33.6999C104.55 33.8999 104.75 33.8999 104.95 33.6999L107.05 31.5999L109.15 33.6999C109.35 33.8999 109.55 33.8999 109.75 33.6999C109.95 33.5999 109.95 33.2999 109.75 33.0999Z" fill="#FE5115"/>
<path d="M127.15 33.0999L125.05 30.9999L127.15 28.8999C127.35 28.6999 127.35 28.4999 127.15 28.2999C126.95 28.0999 126.75 28.0999 126.55 28.2999L124.45 30.3999L122.35 28.2999C122.15 28.0999 121.95 28.0999 121.75 28.2999C121.55 28.4999 121.55 28.6999 121.75 28.8999L123.85 30.9999L121.75 33.0999C121.55 33.2999 121.55 33.4999 121.75 33.6999C121.95 33.8999 122.15 33.8999 122.35 33.6999L124.45 31.5999L126.55 33.6999C126.75 33.8999 126.95 33.8999 127.15 33.6999C127.35 33.5999 127.35 33.2999 127.15 33.0999Z" fill="#FE5115"/>
<path d="M144.45 33.0999L142.35 30.9999L144.45 28.8999C144.65 28.6999 144.65 28.4999 144.45 28.2999C144.25 28.0999 144.05 28.0999 143.85 28.2999L141.75 30.3999L139.65 28.2999C139.45 28.0999 139.25 28.0999 139.05 28.2999C138.85 28.4999 138.85 28.6999 139.05 28.8999L141.15 30.9999L139.05 33.0999C138.85 33.2999 138.85 33.4999 139.05 33.6999C139.25 33.8999 139.45 33.8999 139.65 33.6999L141.75 31.5999L143.85 33.6999C144.05 33.8999 144.25 33.8999 144.45 33.6999C144.65 33.5999 144.65 33.2999 144.45 33.0999Z" fill="#FE5115"/>
<path d="M161.85 33.0999L159.75 30.9999L161.85 28.8999C162.05 28.6999 162.05 28.4999 161.85 28.2999C161.65 28.0999 161.45 28.0999 161.25 28.2999L159.15 30.3999L157.05 28.2999C156.85 28.0999 156.65 28.0999 156.45 28.2999C156.25 28.4999 156.25 28.6999 156.45 28.8999L158.55 30.9999L156.45 33.0999C156.25 33.2999 156.25 33.4999 156.45 33.6999C156.65 33.8999 156.85 33.8999 157.05 33.6999L159.15 31.5999L161.25 33.6999C161.45 33.8999 161.65 33.8999 161.85 33.6999C162.05 33.5999 162.05 33.2999 161.85 33.0999Z" fill="#FE5115"/>
<path d="M179.25 33.0999L177.15 30.9999L179.25 28.8999C179.45 28.6999 179.45 28.4999 179.25 28.2999C179.05 28.0999 178.85 28.0999 178.65 28.2999L176.55 30.3999L174.45 28.2999C174.25 28.0999 174.05 28.0999 173.85 28.2999C173.65 28.4999 173.65 28.6999 173.85 28.8999L175.95 30.9999L173.85 33.0999C173.65 33.2999 173.65 33.4999 173.85 33.6999C174.05 33.8999 174.25 33.8999 174.45 33.6999L176.55 31.5999L178.65 33.6999C178.85 33.8999 179.05 33.8999 179.25 33.6999C179.45 33.4999 179.45 33.2999 179.25 33.0999Z" fill="#FE5115"/>
<path d="M5.54999 46.9999L3.45 44.8999L5.54999 42.7999C5.74999 42.5999 5.74999 42.3999 5.54999 42.1999C5.34999 41.9999 5.15 41.9999 4.95 42.1999L2.85 44.2999L0.750006 42.1999C0.550006 41.9999 0.35 41.9999 0.15 42.1999C-0.05 42.3999 -0.05 42.5999 0.15 42.7999L2.25001 44.8999L0.15 46.9999C-0.05 47.1999 -0.05 47.3999 0.15 47.5999C0.35 47.7999 0.550006 47.7999 0.750006 47.5999L2.85 45.4999L4.95 47.5999C5.15 47.7999 5.34999 47.7999 5.54999 47.5999C5.74999 47.3999 5.74999 47.0999 5.54999 46.9999Z" fill="#FE5115"/>
<path d="M22.95 46.9999L20.85 44.8999L22.95 42.7999C23.15 42.5999 23.15 42.3999 22.95 42.1999C22.75 41.9999 22.55 41.9999 22.35 42.1999L20.25 44.2999L18.15 42.1999C17.95 41.9999 17.75 41.9999 17.55 42.1999C17.35 42.3999 17.35 42.5999 17.55 42.7999L19.65 44.8999L17.55 46.9999C17.35 47.1999 17.35 47.3999 17.55 47.5999C17.75 47.7999 17.95 47.7999 18.15 47.5999L20.25 45.4999L22.35 47.5999C22.55 47.7999 22.75 47.7999 22.95 47.5999C23.15 47.3999 23.15 47.0999 22.95 46.9999Z" fill="#FE5115"/>
<path d="M40.25 46.9999L38.15 44.8999L40.25 42.7999C40.45 42.5999 40.45 42.3999 40.25 42.1999C40.05 41.9999 39.85 41.9999 39.65 42.1999L37.5499 44.2999L35.45 42.1999C35.25 41.9999 35.05 41.9999 34.85 42.1999C34.65 42.3999 34.65 42.5999 34.85 42.7999L36.95 44.8999L34.85 46.9999C34.65 47.1999 34.65 47.3999 34.85 47.5999C35.05 47.7999 35.25 47.7999 35.45 47.5999L37.5499 45.4999L39.65 47.5999C39.85 47.7999 40.05 47.7999 40.25 47.5999C40.45 47.3999 40.45 47.0999 40.25 46.9999Z" fill="#FE5115"/>
<path d="M57.65 46.9999L55.55 44.8999L57.65 42.7999C57.85 42.5999 57.85 42.3999 57.65 42.1999C57.45 41.9999 57.25 41.9999 57.05 42.1999L54.95 44.2999L52.85 42.1999C52.65 41.9999 52.45 41.9999 52.25 42.1999C52.05 42.3999 52.05 42.5999 52.25 42.7999L54.35 44.8999L52.25 46.9999C52.05 47.1999 52.05 47.3999 52.25 47.5999C52.45 47.7999 52.65 47.7999 52.85 47.5999L54.95 45.4999L57.05 47.5999C57.25 47.7999 57.45 47.7999 57.65 47.5999C57.85 47.3999 57.85 47.0999 57.65 46.9999Z" fill="#FE5115"/>
<path d="M75.05 46.9999L72.95 44.8999L75.05 42.7999C75.25 42.5999 75.25 42.3999 75.05 42.1999C74.85 41.9999 74.65 41.9999 74.45 42.1999L72.35 44.2999L70.25 42.1999C70.05 41.9999 69.85 41.9999 69.65 42.1999C69.45 42.3999 69.45 42.5999 69.65 42.7999L71.75 44.8999L69.65 46.9999C69.45 47.1999 69.45 47.3999 69.65 47.5999C69.85 47.7999 70.05 47.7999 70.25 47.5999L72.35 45.4999L74.45 47.5999C74.65 47.7999 74.85 47.7999 75.05 47.5999C75.25 47.3999 75.25 47.0999 75.05 46.9999Z" fill="#FE5115"/>
<path d="M92.35 46.9999L90.2501 44.8999L92.35 42.7999C92.55 42.5999 92.55 42.3999 92.35 42.1999C92.15 41.9999 91.9501 41.9999 91.7501 42.1999L89.65 44.2999L87.55 42.1999C87.35 41.9999 87.15 41.9999 86.95 42.1999C86.75 42.3999 86.75 42.5999 86.95 42.7999L89.05 44.8999L86.95 46.9999C86.75 47.1999 86.75 47.3999 86.95 47.5999C87.15 47.7999 87.35 47.7999 87.55 47.5999L89.65 45.4999L91.7501 47.5999C91.9501 47.7999 92.15 47.7999 92.35 47.5999C92.55 47.3999 92.55 47.0999 92.35 46.9999Z" fill="#FE5115"/>
<path d="M109.75 46.9999L107.65 44.8999L109.75 42.7999C109.95 42.5999 109.95 42.3999 109.75 42.1999C109.55 41.9999 109.35 41.9999 109.15 42.1999L107.05 44.2999L104.95 42.1999C104.75 41.9999 104.55 41.9999 104.35 42.1999C104.15 42.3999 104.15 42.5999 104.35 42.7999L106.45 44.8999L104.35 46.9999C104.15 47.1999 104.15 47.3999 104.35 47.5999C104.55 47.7999 104.75 47.7999 104.95 47.5999L107.05 45.4999L109.15 47.5999C109.35 47.7999 109.55 47.7999 109.75 47.5999C109.95 47.3999 109.95 47.0999 109.75 46.9999Z" fill="#FE5115"/>
<path d="M127.15 46.9999L125.05 44.8999L127.15 42.7999C127.35 42.5999 127.35 42.3999 127.15 42.1999C126.95 41.9999 126.75 41.9999 126.55 42.1999L124.45 44.2999L122.35 42.1999C122.15 41.9999 121.95 41.9999 121.75 42.1999C121.55 42.3999 121.55 42.5999 121.75 42.7999L123.85 44.8999L121.75 46.9999C121.55 47.1999 121.55 47.3999 121.75 47.5999C121.95 47.7999 122.15 47.7999 122.35 47.5999L124.45 45.4999L126.55 47.5999C126.75 47.7999 126.95 47.7999 127.15 47.5999C127.35 47.3999 127.35 47.0999 127.15 46.9999Z" fill="#FE5115"/>
<path d="M144.45 46.9999L142.35 44.8999L144.45 42.7999C144.65 42.5999 144.65 42.3999 144.45 42.1999C144.25 41.9999 144.05 41.9999 143.85 42.1999L141.75 44.2999L139.65 42.1999C139.45 41.9999 139.25 41.9999 139.05 42.1999C138.85 42.3999 138.85 42.5999 139.05 42.7999L141.15 44.8999L139.05 46.9999C138.85 47.1999 138.85 47.3999 139.05 47.5999C139.25 47.7999 139.45 47.7999 139.65 47.5999L141.75 45.4999L143.85 47.5999C144.05 47.7999 144.25 47.7999 144.45 47.5999C144.65 47.3999 144.65 47.0999 144.45 46.9999Z" fill="#FE5115"/>
<path d="M161.85 46.9999L159.75 44.8999L161.85 42.7999C162.05 42.5999 162.05 42.3999 161.85 42.1999C161.65 41.9999 161.45 41.9999 161.25 42.1999L159.15 44.2999L157.05 42.1999C156.85 41.9999 156.65 41.9999 156.45 42.1999C156.25 42.3999 156.25 42.5999 156.45 42.7999L158.55 44.8999L156.45 46.9999C156.25 47.1999 156.25 47.3999 156.45 47.5999C156.65 47.7999 156.85 47.7999 157.05 47.5999L159.15 45.4999L161.25 47.5999C161.45 47.7999 161.65 47.7999 161.85 47.5999C162.05 47.3999 162.05 47.0999 161.85 46.9999Z" fill="#FE5115"/>
<path d="M179.25 46.9999L177.15 44.8999L179.25 42.7999C179.45 42.5999 179.45 42.3999 179.25 42.1999C179.05 41.9999 178.85 41.9999 178.65 42.1999L176.55 44.2999L174.45 42.1999C174.25 41.9999 174.05 41.9999 173.85 42.1999C173.65 42.3999 173.65 42.5999 173.85 42.7999L175.95 44.8999L173.85 46.9999C173.65 47.1999 173.65 47.3999 173.85 47.5999C174.05 47.7999 174.25 47.7999 174.45 47.5999L176.55 45.4999L178.65 47.5999C178.85 47.7999 179.05 47.7999 179.25 47.5999C179.45 47.3999 179.45 47.0999 179.25 46.9999Z" fill="#FE5115"/>
<path d="M5.54999 60.8L3.45 58.7L5.54999 56.6C5.74999 56.4 5.74999 56.2 5.54999 56C5.34999 55.8 5.15 55.8 4.95 56L2.85 58.1L0.750006 56C0.550006 55.8 0.35 55.8 0.15 56C-0.05 56.2 -0.05 56.4 0.15 56.6L2.25001 58.7L0.15 60.8C-0.05 61 -0.05 61.2 0.15 61.4C0.35 61.6 0.550006 61.6 0.750006 61.4L2.85 59.3L4.95 61.4C5.15 61.6 5.34999 61.6 5.54999 61.4C5.74999 61.2 5.74999 61 5.54999 60.8Z" fill="#FE5115"/>
<path d="M22.95 60.8L20.85 58.7L22.95 56.6C23.15 56.4 23.15 56.2 22.95 56C22.75 55.8 22.55 55.8 22.35 56L20.25 58.1L18.15 56C17.95 55.8 17.75 55.8 17.55 56C17.35 56.2 17.35 56.4 17.55 56.6L19.65 58.7L17.55 60.8C17.35 61 17.35 61.2 17.55 61.4C17.75 61.6 17.95 61.6 18.15 61.4L20.25 59.3L22.35 61.4C22.55 61.6 22.75 61.6 22.95 61.4C23.15 61.2 23.15 61 22.95 60.8Z" fill="#FE5115"/>
<path d="M40.25 60.8L38.15 58.7L40.25 56.6C40.45 56.4 40.45 56.2 40.25 56C40.05 55.8 39.85 55.8 39.65 56L37.5499 58.1L35.45 56C35.25 55.8 35.05 55.8 34.85 56C34.65 56.2 34.65 56.4 34.85 56.6L36.95 58.7L34.85 60.8C34.65 61 34.65 61.2 34.85 61.4C35.05 61.6 35.25 61.6 35.45 61.4L37.5499 59.3L39.65 61.4C39.85 61.6 40.05 61.6 40.25 61.4C40.45 61.2 40.45 61 40.25 60.8Z" fill="#FE5115"/>
<path d="M57.65 60.8L55.55 58.7L57.65 56.6C57.85 56.4 57.85 56.2 57.65 56C57.45 55.8 57.25 55.8 57.05 56L54.95 58.1L52.85 56C52.65 55.8 52.45 55.8 52.25 56C52.05 56.2 52.05 56.4 52.25 56.6L54.35 58.7L52.25 60.8C52.05 61 52.05 61.2 52.25 61.4C52.45 61.6 52.65 61.6 52.85 61.4L54.95 59.3L57.05 61.4C57.25 61.6 57.45 61.6 57.65 61.4C57.85 61.2 57.85 61 57.65 60.8Z" fill="#FE5115"/>
<path d="M75.05 60.8L72.95 58.7L75.05 56.6C75.25 56.4 75.25 56.2 75.05 56C74.85 55.8 74.65 55.8 74.45 56L72.35 58.1L70.25 56C70.05 55.8 69.85 55.8 69.65 56C69.45 56.2 69.45 56.4 69.65 56.6L71.75 58.7L69.65 60.8C69.45 61 69.45 61.2 69.65 61.4C69.85 61.6 70.05 61.6 70.25 61.4L72.35 59.3L74.45 61.4C74.65 61.6 74.85 61.6 75.05 61.4C75.25 61.2 75.25 61 75.05 60.8Z" fill="#FE5115"/>
<path d="M92.35 60.8L90.2501 58.7L92.35 56.6C92.55 56.4 92.55 56.2 92.35 56C92.15 55.8 91.9501 55.8 91.7501 56L89.65 58.1L87.55 56C87.35 55.8 87.15 55.8 86.95 56C86.75 56.2 86.75 56.4 86.95 56.6L89.05 58.7L86.95 60.8C86.75 61 86.75 61.2 86.95 61.4C87.15 61.6 87.35 61.6 87.55 61.4L89.65 59.3L91.7501 61.4C91.9501 61.6 92.15 61.6 92.35 61.4C92.55 61.2 92.55 61 92.35 60.8Z" fill="#FE5115"/>
<path d="M109.75 60.8L107.65 58.7L109.75 56.6C109.95 56.4 109.95 56.2 109.75 56C109.55 55.8 109.35 55.8 109.15 56L107.05 58.1L104.95 56C104.75 55.8 104.55 55.8 104.35 56C104.15 56.2 104.15 56.4 104.35 56.6L106.45 58.7L104.35 60.8C104.15 61 104.15 61.2 104.35 61.4C104.55 61.6 104.75 61.6 104.95 61.4L107.05 59.3L109.15 61.4C109.35 61.6 109.55 61.6 109.75 61.4C109.95 61.2 109.95 61 109.75 60.8Z" fill="#FE5115"/>
<path d="M127.15 60.8L125.05 58.7L127.15 56.6C127.35 56.4 127.35 56.2 127.15 56C126.95 55.8 126.75 55.8 126.55 56L124.45 58.1L122.35 56C122.15 55.8 121.95 55.8 121.75 56C121.55 56.2 121.55 56.4 121.75 56.6L123.85 58.7L121.75 60.8C121.55 61 121.55 61.2 121.75 61.4C121.95 61.6 122.15 61.6 122.35 61.4L124.45 59.3L126.55 61.4C126.75 61.6 126.95 61.6 127.15 61.4C127.35 61.2 127.35 61 127.15 60.8Z" fill="#FE5115"/>
<path d="M144.45 60.8L142.35 58.7L144.45 56.6C144.65 56.4 144.65 56.2 144.45 56C144.25 55.8 144.05 55.8 143.85 56L141.75 58.1L139.65 56C139.45 55.8 139.25 55.8 139.05 56C138.85 56.2 138.85 56.4 139.05 56.6L141.15 58.7L139.05 60.8C138.85 61 138.85 61.2 139.05 61.4C139.25 61.6 139.45 61.6 139.65 61.4L141.75 59.3L143.85 61.4C144.05 61.6 144.25 61.6 144.45 61.4C144.65 61.2 144.65 61 144.45 60.8Z" fill="#FE5115"/>
<path d="M161.85 60.8L159.75 58.7L161.85 56.6C162.05 56.4 162.05 56.2 161.85 56C161.65 55.8 161.45 55.8 161.25 56L159.15 58.1L157.05 56C156.85 55.8 156.65 55.8 156.45 56C156.25 56.2 156.25 56.4 156.45 56.6L158.55 58.7L156.45 60.8C156.25 61 156.25 61.2 156.45 61.4C156.65 61.6 156.85 61.6 157.05 61.4L159.15 59.3L161.25 61.4C161.45 61.6 161.65 61.6 161.85 61.4C162.05 61.2 162.05 61 161.85 60.8Z" fill="#FE5115"/>
<path d="M179.25 60.8L177.15 58.7L179.25 56.6C179.45 56.4 179.45 56.2 179.25 56C179.05 55.8 178.85 55.8 178.65 56L176.55 58.1L174.45 56C174.25 55.8 174.05 55.8 173.85 56C173.65 56.2 173.65 56.4 173.85 56.6L175.95 58.7L173.85 60.8C173.65 61 173.65 61.2 173.85 61.4C174.05 61.6 174.25 61.6 174.45 61.4L176.55 59.3L178.65 61.4C178.85 61.6 179.05 61.6 179.25 61.4C179.45 61.2 179.45 61 179.25 60.8Z" fill="#FE5115"/>
<path d="M192.95 5.39995L190.85 3.29995L192.95 1.19994C193.15 0.999942 193.15 0.799951 192.95 0.599951C192.75 0.399951 192.55 0.399951 192.35 0.599951L190.25 2.69994L188.15 0.599951C187.95 0.399951 187.75 0.399951 187.55 0.599951C187.35 0.799951 187.35 0.999942 187.55 1.19994L189.65 3.29995L187.55 5.39995C187.35 5.59995 187.35 5.79995 187.55 5.99995C187.75 6.19994 187.95 6.19994 188.15 5.99995L190.25 3.89995L192.35 5.99995C192.55 6.19994 192.75 6.19994 192.95 5.99995C193.15 5.89995 193.15 5.59995 192.95 5.39995Z" fill="#FE5115"/>
<path d="M210.35 5.39995L208.25 3.29995L210.35 1.19994C210.55 0.999942 210.55 0.799951 210.35 0.599951C210.15 0.399951 209.95 0.399951 209.75 0.599951L207.65 2.69994L205.55 0.599951C205.35 0.399951 205.15 0.399951 204.95 0.599951C204.75 0.799951 204.75 0.999942 204.95 1.19994L207.05 3.29995L204.95 5.39995C204.75 5.59995 204.75 5.79995 204.95 5.99995C205.15 6.19994 205.35 6.19994 205.55 5.99995L207.65 3.89995L209.75 5.99995C209.95 6.19994 210.15 6.19994 210.35 5.99995C210.55 5.89995 210.55 5.59995 210.35 5.39995Z" fill="#FE5115"/>
<path d="M227.65 5.39995L225.55 3.29995L227.65 1.19994C227.85 0.999942 227.85 0.799951 227.65 0.599951C227.45 0.399951 227.25 0.399951 227.05 0.599951L224.95 2.69994L222.85 0.599951C222.65 0.399951 222.45 0.399951 222.25 0.599951C222.05 0.799951 222.05 0.999942 222.25 1.19994L224.35 3.29995L222.25 5.39995C222.05 5.59995 222.05 5.79995 222.25 5.99995C222.45 6.19994 222.65 6.19994 222.85 5.99995L224.95 3.89995L227.05 5.99995C227.25 6.19994 227.45 6.19994 227.65 5.99995C227.85 5.89995 227.85 5.59995 227.65 5.39995Z" fill="#FE5115"/>
<path d="M245.05 5.39995L242.95 3.29995L245.05 1.19994C245.25 0.999942 245.25 0.799951 245.05 0.599951C244.85 0.399951 244.65 0.399951 244.45 0.599951L242.35 2.69994L240.25 0.599951C240.05 0.399951 239.85 0.399951 239.65 0.599951C239.45 0.799951 239.45 0.999942 239.65 1.19994L241.75 3.29995L239.65 5.39995C239.45 5.59995 239.45 5.79995 239.65 5.99995C239.85 6.19994 240.05 6.19994 240.25 5.99995L242.35 3.89995L244.45 5.99995C244.65 6.19994 244.85 6.19994 245.05 5.99995C245.25 5.89995 245.25 5.59995 245.05 5.39995Z" fill="#FE5115"/>
<path d="M262.45 5.39995L260.35 3.29995L262.45 1.19994C262.65 0.999942 262.65 0.799951 262.45 0.599951C262.25 0.399951 262.05 0.399951 261.85 0.599951L259.75 2.69994L257.65 0.599951C257.45 0.399951 257.25 0.399951 257.05 0.599951C256.85 0.799951 256.85 0.999942 257.05 1.19994L259.15 3.29995L257.05 5.39995C256.85 5.59995 256.85 5.79995 257.05 5.99995C257.25 6.19994 257.45 6.19994 257.65 5.99995L259.75 3.89995L261.85 5.99995C262.05 6.19994 262.25 6.19994 262.45 5.99995C262.65 5.89995 262.65 5.59995 262.45 5.39995Z" fill="#FE5115"/>
<path d="M279.75 5.39995L277.65 3.29995L279.75 1.19994C279.95 0.999942 279.95 0.799951 279.75 0.599951C279.55 0.399951 279.35 0.399951 279.15 0.599951L277.05 2.69994L274.95 0.599951C274.75 0.399951 274.55 0.399951 274.35 0.599951C274.15 0.799951 274.15 0.999942 274.35 1.19994L276.45 3.29995L274.35 5.39995C274.15 5.59995 274.15 5.79995 274.35 5.99995C274.55 6.19994 274.75 6.19994 274.95 5.99995L277.05 3.89995L279.15 5.99995C279.35 6.19994 279.55 6.19994 279.75 5.99995C279.95 5.89995 279.95 5.59995 279.75 5.39995Z" fill="#FE5115"/>
<path d="M297.15 5.39995L295.05 3.29995L297.15 1.19994C297.35 0.999942 297.35 0.799951 297.15 0.599951C296.95 0.399951 296.75 0.399951 296.55 0.599951L294.45 2.69994L292.35 0.599951C292.15 0.399951 291.95 0.399951 291.75 0.599951C291.55 0.799951 291.55 0.999942 291.75 1.19994L293.85 3.29995L291.75 5.39995C291.55 5.59995 291.55 5.79995 291.75 5.99995C291.95 6.19994 292.15 6.19994 292.35 5.99995L294.45 3.89995L296.55 5.99995C296.75 6.19994 296.95 6.19994 297.15 5.99995C297.35 5.89995 297.35 5.59995 297.15 5.39995Z" fill="#FE5115"/>
<path d="M314.55 5.39995L312.45 3.29995L314.55 1.19994C314.75 0.999942 314.75 0.799951 314.55 0.599951C314.35 0.399951 314.15 0.399951 313.95 0.599951L311.85 2.69994L309.75 0.599951C309.55 0.399951 309.35 0.399951 309.15 0.599951C308.95 0.799951 308.95 0.999942 309.15 1.19994L311.25 3.29995L309.15 5.39995C308.95 5.59995 308.95 5.79995 309.15 5.99995C309.35 6.19994 309.55 6.19994 309.75 5.99995L311.85 3.89995L313.95 5.99995C314.15 6.19994 314.35 6.19994 314.55 5.99995C314.75 5.89995 314.75 5.59995 314.55 5.39995Z" fill="#FE5115"/>
<path d="M331.85 5.39995L329.75 3.29995L331.85 1.19994C332.05 0.999942 332.05 0.799951 331.85 0.599951C331.65 0.399951 331.45 0.399951 331.25 0.599951L329.15 2.69994L327.05 0.599951C326.85 0.399951 326.65 0.399951 326.45 0.599951C326.25 0.799951 326.25 0.999942 326.45 1.19994L328.55 3.29995L326.45 5.39995C326.25 5.59995 326.25 5.79995 326.45 5.99995C326.65 6.19994 326.85 6.19994 327.05 5.99995L329.15 3.89995L331.25 5.99995C331.45 6.19994 331.65 6.19994 331.85 5.99995C332.05 5.89995 332.05 5.59995 331.85 5.39995Z" fill="#FE5115"/>
<path d="M349.25 5.39995L347.15 3.29995L349.25 1.19994C349.45 0.999942 349.45 0.799951 349.25 0.599951C349.05 0.399951 348.85 0.399951 348.65 0.599951L346.55 2.69994L344.45 0.599951C344.25 0.399951 344.05 0.399951 343.85 0.599951C343.65 0.799951 343.65 0.999942 343.85 1.19994L345.95 3.29995L343.85 5.39995C343.65 5.59995 343.65 5.79995 343.85 5.99995C344.05 6.19994 344.25 6.19994 344.45 5.99995L346.55 3.89995L348.65 5.99995C348.85 6.19994 349.05 6.19994 349.25 5.99995C349.45 5.89995 349.45 5.59995 349.25 5.39995Z" fill="#FE5115"/>
<path d="M366.65 5.39995L364.55 3.29995L366.65 1.19994C366.85 0.999942 366.85 0.799951 366.65 0.599951C366.45 0.399951 366.25 0.399951 366.05 0.599951L363.95 2.69994L361.85 0.599951C361.65 0.399951 361.45 0.399951 361.25 0.599951C361.05 0.799951 361.05 0.999942 361.25 1.19994L363.35 3.29995L361.25 5.39995C361.05 5.59995 361.05 5.79995 361.25 5.99995C361.45 6.19994 361.65 6.19994 361.85 5.99995L363.95 3.89995L366.05 5.99995C366.25 6.19994 366.45 6.19994 366.65 5.99995C366.85 5.79995 366.85 5.59995 366.65 5.39995Z" fill="#FE5115"/>
<path d="M192.95 19.3L190.85 17.2L192.95 15.1C193.15 14.9 193.15 14.7 192.95 14.5C192.75 14.3 192.55 14.3 192.35 14.5L190.25 16.6L188.15 14.5C187.95 14.3 187.75 14.3 187.55 14.5C187.35 14.7 187.35 14.9 187.55 15.1L189.65 17.2L187.55 19.3C187.35 19.5 187.35 19.7 187.55 19.9C187.75 20.1 187.95 20.1 188.15 19.9L190.25 17.8L192.35 19.9C192.55 20.1 192.75 20.1 192.95 19.9C193.15 19.7 193.15 19.4 192.95 19.3Z" fill="#FE5115"/>
<path d="M210.35 19.3L208.25 17.2L210.35 15.1C210.55 14.9 210.55 14.7 210.35 14.5C210.15 14.3 209.95 14.3 209.75 14.5L207.65 16.6L205.55 14.5C205.35 14.3 205.15 14.3 204.95 14.5C204.75 14.7 204.75 14.9 204.95 15.1L207.05 17.2L204.95 19.3C204.75 19.5 204.75 19.7 204.95 19.9C205.15 20.1 205.35 20.1 205.55 19.9L207.65 17.8L209.75 19.9C209.95 20.1 210.15 20.1 210.35 19.9C210.55 19.7 210.55 19.4 210.35 19.3Z" fill="#FE5115"/>
<path d="M227.65 19.3L225.55 17.2L227.65 15.1C227.85 14.9 227.85 14.7 227.65 14.5C227.45 14.3 227.25 14.3 227.05 14.5L224.95 16.6L222.85 14.5C222.65 14.3 222.45 14.3 222.25 14.5C222.05 14.7 222.05 14.9 222.25 15.1L224.35 17.2L222.25 19.3C222.05 19.5 222.05 19.7 222.25 19.9C222.45 20.1 222.65 20.1 222.85 19.9L224.95 17.8L227.05 19.9C227.25 20.1 227.45 20.1 227.65 19.9C227.85 19.7 227.85 19.4 227.65 19.3Z" fill="#FE5115"/>
<path d="M245.05 19.3L242.95 17.2L245.05 15.1C245.25 14.9 245.25 14.7 245.05 14.5C244.85 14.3 244.65 14.3 244.45 14.5L242.35 16.6L240.25 14.5C240.05 14.3 239.85 14.3 239.65 14.5C239.45 14.7 239.45 14.9 239.65 15.1L241.75 17.2L239.65 19.3C239.45 19.5 239.45 19.7 239.65 19.9C239.85 20.1 240.05 20.1 240.25 19.9L242.35 17.8L244.45 19.9C244.65 20.1 244.85 20.1 245.05 19.9C245.25 19.7 245.25 19.4 245.05 19.3Z" fill="#FE5115"/>
<path d="M262.45 19.3L260.35 17.2L262.45 15.1C262.65 14.9 262.65 14.7 262.45 14.5C262.25 14.3 262.05 14.3 261.85 14.5L259.75 16.6L257.65 14.5C257.45 14.3 257.25 14.3 257.05 14.5C256.85 14.7 256.85 14.9 257.05 15.1L259.15 17.2L257.05 19.3C256.85 19.5 256.85 19.7 257.05 19.9C257.25 20.1 257.45 20.1 257.65 19.9L259.75 17.8L261.85 19.9C262.05 20.1 262.25 20.1 262.45 19.9C262.65 19.7 262.65 19.4 262.45 19.3Z" fill="#FE5115"/>
<path d="M279.75 19.3L277.65 17.2L279.75 15.1C279.95 14.9 279.95 14.7 279.75 14.5C279.55 14.3 279.35 14.3 279.15 14.5L277.05 16.6L274.95 14.5C274.75 14.3 274.55 14.3 274.35 14.5C274.15 14.7 274.15 14.9 274.35 15.1L276.45 17.2L274.35 19.3C274.15 19.5 274.15 19.7 274.35 19.9C274.55 20.1 274.75 20.1 274.95 19.9L277.05 17.8L279.15 19.9C279.35 20.1 279.55 20.1 279.75 19.9C279.95 19.7 279.95 19.4 279.75 19.3Z" fill="#FE5115"/>
<path d="M297.15 19.3L295.05 17.2L297.15 15.1C297.35 14.9 297.35 14.7 297.15 14.5C296.95 14.3 296.75 14.3 296.55 14.5L294.45 16.6L292.35 14.5C292.15 14.3 291.95 14.3 291.75 14.5C291.55 14.7 291.55 14.9 291.75 15.1L293.85 17.2L291.75 19.3C291.55 19.5 291.55 19.7 291.75 19.9C291.95 20.1 292.15 20.1 292.35 19.9L294.45 17.8L296.55 19.9C296.75 20.1 296.95 20.1 297.15 19.9C297.35 19.7 297.35 19.4 297.15 19.3Z" fill="#FE5115"/>
<path d="M314.55 19.3L312.45 17.2L314.55 15.1C314.75 14.9 314.75 14.7 314.55 14.5C314.35 14.3 314.15 14.3 313.95 14.5L311.85 16.6L309.75 14.5C309.55 14.3 309.35 14.3 309.15 14.5C308.95 14.7 308.95 14.9 309.15 15.1L311.25 17.2L309.15 19.3C308.95 19.5 308.95 19.7 309.15 19.9C309.35 20.1 309.55 20.1 309.75 19.9L311.85 17.8L313.95 19.9C314.15 20.1 314.35 20.1 314.55 19.9C314.75 19.7 314.75 19.4 314.55 19.3Z" fill="#FE5115"/>
<path d="M331.85 19.3L329.75 17.2L331.85 15.1C332.05 14.9 332.05 14.7 331.85 14.5C331.65 14.3 331.45 14.3 331.25 14.5L329.15 16.6L327.05 14.5C326.85 14.3 326.65 14.3 326.45 14.5C326.25 14.7 326.25 14.9 326.45 15.1L328.55 17.2L326.45 19.3C326.25 19.5 326.25 19.7 326.45 19.9C326.65 20.1 326.85 20.1 327.05 19.9L329.15 17.8L331.25 19.9C331.45 20.1 331.65 20.1 331.85 19.9C332.05 19.7 332.05 19.4 331.85 19.3Z" fill="#FE5115"/>
<path d="M349.25 19.3L347.15 17.2L349.25 15.1C349.45 14.9 349.45 14.7 349.25 14.5C349.05 14.3 348.85 14.3 348.65 14.5L346.55 16.6L344.45 14.5C344.25 14.3 344.05 14.3 343.85 14.5C343.65 14.7 343.65 14.9 343.85 15.1L345.95 17.2L343.85 19.3C343.65 19.5 343.65 19.7 343.85 19.9C344.05 20.1 344.25 20.1 344.45 19.9L346.55 17.8L348.65 19.9C348.85 20.1 349.05 20.1 349.25 19.9C349.45 19.7 349.45 19.4 349.25 19.3Z" fill="#FE5115"/>
<path d="M366.65 19.3L364.55 17.2L366.65 15.1C366.85 14.9 366.85 14.7 366.65 14.5C366.45 14.3 366.25 14.3 366.05 14.5L363.95 16.6L361.85 14.5C361.65 14.3 361.45 14.3 361.25 14.5C361.05 14.7 361.05 14.9 361.25 15.1L363.35 17.2L361.25 19.3C361.05 19.5 361.05 19.7 361.25 19.9C361.45 20.1 361.65 20.1 361.85 19.9L363.95 17.8L366.05 19.9C366.25 20.1 366.45 20.1 366.65 19.9C366.85 19.7 366.85 19.4 366.65 19.3Z" fill="#FE5115"/>
<path d="M192.95 33.0999L190.85 30.9999L192.95 28.8999C193.15 28.6999 193.15 28.4999 192.95 28.2999C192.75 28.0999 192.55 28.0999 192.35 28.2999L190.25 30.3999L188.15 28.2999C187.95 28.0999 187.75 28.0999 187.55 28.2999C187.35 28.4999 187.35 28.6999 187.55 28.8999L189.65 30.9999L187.55 33.0999C187.35 33.2999 187.35 33.4999 187.55 33.6999C187.75 33.8999 187.95 33.8999 188.15 33.6999L190.25 31.5999L192.35 33.6999C192.55 33.8999 192.75 33.8999 192.95 33.6999C193.15 33.5999 193.15 33.2999 192.95 33.0999Z" fill="#FE5115"/>
<path d="M210.35 33.0999L208.25 30.9999L210.35 28.8999C210.55 28.6999 210.55 28.4999 210.35 28.2999C210.15 28.0999 209.95 28.0999 209.75 28.2999L207.65 30.3999L205.55 28.2999C205.35 28.0999 205.15 28.0999 204.95 28.2999C204.75 28.4999 204.75 28.6999 204.95 28.8999L207.05 30.9999L204.95 33.0999C204.75 33.2999 204.75 33.4999 204.95 33.6999C205.15 33.8999 205.35 33.8999 205.55 33.6999L207.65 31.5999L209.75 33.6999C209.95 33.8999 210.15 33.8999 210.35 33.6999C210.55 33.5999 210.55 33.2999 210.35 33.0999Z" fill="#FE5115"/>
<path d="M227.65 33.0999L225.55 30.9999L227.65 28.8999C227.85 28.6999 227.85 28.4999 227.65 28.2999C227.45 28.0999 227.25 28.0999 227.05 28.2999L224.95 30.3999L222.85 28.2999C222.65 28.0999 222.45 28.0999 222.25 28.2999C222.05 28.4999 222.05 28.6999 222.25 28.8999L224.35 30.9999L222.25 33.0999C222.05 33.2999 222.05 33.4999 222.25 33.6999C222.45 33.8999 222.65 33.8999 222.85 33.6999L224.95 31.5999L227.05 33.6999C227.25 33.8999 227.45 33.8999 227.65 33.6999C227.85 33.5999 227.85 33.2999 227.65 33.0999Z" fill="#FE5115"/>
<path d="M245.05 33.0999L242.95 30.9999L245.05 28.8999C245.25 28.6999 245.25 28.4999 245.05 28.2999C244.85 28.0999 244.65 28.0999 244.45 28.2999L242.35 30.3999L240.25 28.2999C240.05 28.0999 239.85 28.0999 239.65 28.2999C239.45 28.4999 239.45 28.6999 239.65 28.8999L241.75 30.9999L239.65 33.0999C239.45 33.2999 239.45 33.4999 239.65 33.6999C239.85 33.8999 240.05 33.8999 240.25 33.6999L242.35 31.5999L244.45 33.6999C244.65 33.8999 244.85 33.8999 245.05 33.6999C245.25 33.5999 245.25 33.2999 245.05 33.0999Z" fill="#FE5115"/>
<path d="M262.45 33.0999L260.35 30.9999L262.45 28.8999C262.65 28.6999 262.65 28.4999 262.45 28.2999C262.25 28.0999 262.05 28.0999 261.85 28.2999L259.75 30.3999L257.55 28.2999C257.35 28.0999 257.15 28.0999 256.95 28.2999C256.75 28.4999 256.75 28.6999 256.95 28.8999L259.05 30.9999L256.95 33.0999C256.75 33.2999 256.75 33.4999 256.95 33.6999C257.15 33.8999 257.35 33.8999 257.55 33.6999L259.65 31.5999L261.75 33.6999C261.95 33.8999 262.15 33.8999 262.35 33.6999C262.65 33.5999 262.65 33.2999 262.45 33.0999Z" fill="#FE5115"/>
<path d="M279.75 33.0999L277.65 30.9999L279.75 28.8999C279.95 28.6999 279.95 28.4999 279.75 28.2999C279.55 28.0999 279.35 28.0999 279.15 28.2999L277.05 30.3999L274.95 28.2999C274.75 28.0999 274.55 28.0999 274.35 28.2999C274.15 28.4999 274.15 28.6999 274.35 28.8999L276.45 30.9999L274.35 33.0999C274.15 33.2999 274.15 33.4999 274.35 33.6999C274.55 33.8999 274.75 33.8999 274.95 33.6999L277.05 31.5999L279.15 33.6999C279.35 33.8999 279.55 33.8999 279.75 33.6999C279.95 33.5999 279.95 33.2999 279.75 33.0999Z" fill="#FE5115"/>
<path d="M297.15 33.0999L295.05 30.9999L297.15 28.8999C297.35 28.6999 297.35 28.4999 297.15 28.2999C296.95 28.0999 296.75 28.0999 296.55 28.2999L294.45 30.3999L292.35 28.2999C292.15 28.0999 291.95 28.0999 291.75 28.2999C291.55 28.4999 291.55 28.6999 291.75 28.8999L293.85 30.9999L291.75 33.0999C291.55 33.2999 291.55 33.4999 291.75 33.6999C291.95 33.8999 292.15 33.8999 292.35 33.6999L294.45 31.5999L296.55 33.6999C296.75 33.8999 296.95 33.8999 297.15 33.6999C297.35 33.5999 297.35 33.2999 297.15 33.0999Z" fill="#FE5115"/>
<path d="M314.55 33.0999L312.45 30.9999L314.55 28.8999C314.75 28.6999 314.75 28.4999 314.55 28.2999C314.35 28.0999 314.15 28.0999 313.95 28.2999L311.85 30.3999L309.75 28.2999C309.55 28.0999 309.35 28.0999 309.15 28.2999C308.95 28.4999 308.95 28.6999 309.15 28.8999L311.25 30.9999L309.15 33.0999C308.95 33.2999 308.95 33.4999 309.15 33.6999C309.35 33.8999 309.55 33.8999 309.75 33.6999L311.85 31.5999L313.95 33.6999C314.15 33.8999 314.35 33.8999 314.55 33.6999C314.75 33.5999 314.75 33.2999 314.55 33.0999Z" fill="#FE5115"/>
<path d="M331.85 33.0999L329.75 30.9999L331.85 28.8999C332.05 28.6999 332.05 28.4999 331.85 28.2999C331.65 28.0999 331.45 28.0999 331.25 28.2999L329.15 30.3999L327.05 28.2999C326.85 28.0999 326.65 28.0999 326.45 28.2999C326.25 28.4999 326.25 28.6999 326.45 28.8999L328.55 30.9999L326.45 33.0999C326.25 33.2999 326.25 33.4999 326.45 33.6999C326.65 33.8999 326.85 33.8999 327.05 33.6999L329.15 31.5999L331.25 33.6999C331.45 33.8999 331.65 33.8999 331.85 33.6999C332.05 33.5999 332.05 33.2999 331.85 33.0999Z" fill="#FE5115"/>
<path d="M349.25 33.0999L347.15 30.9999L349.25 28.8999C349.45 28.6999 349.45 28.4999 349.25 28.2999C349.05 28.0999 348.85 28.0999 348.65 28.2999L346.55 30.3999L344.45 28.2999C344.25 28.0999 344.05 28.0999 343.85 28.2999C343.65 28.4999 343.65 28.6999 343.85 28.8999L345.95 30.9999L343.85 33.0999C343.65 33.2999 343.65 33.4999 343.85 33.6999C344.05 33.8999 344.25 33.8999 344.45 33.6999L346.55 31.5999L348.65 33.6999C348.85 33.8999 349.05 33.8999 349.25 33.6999C349.45 33.5999 349.45 33.2999 349.25 33.0999Z" fill="#FE5115"/>
<path d="M366.65 33.0999L364.55 30.9999L366.65 28.8999C366.85 28.6999 366.85 28.4999 366.65 28.2999C366.45 28.0999 366.25 28.0999 366.05 28.2999L363.95 30.3999L361.85 28.2999C361.65 28.0999 361.45 28.0999 361.25 28.2999C361.05 28.4999 361.05 28.6999 361.25 28.8999L363.35 30.9999L361.25 33.0999C361.05 33.2999 361.05 33.4999 361.25 33.6999C361.45 33.8999 361.65 33.8999 361.85 33.6999L363.95 31.5999L366.05 33.6999C366.25 33.8999 366.45 33.8999 366.65 33.6999C366.85 33.4999 366.85 33.2999 366.65 33.0999Z" fill="#FE5115"/>
<path d="M192.95 46.9999L190.85 44.8999L192.95 42.7999C193.15 42.5999 193.15 42.3999 192.95 42.1999C192.75 41.9999 192.55 41.9999 192.35 42.1999L190.25 44.2999L188.15 42.1999C187.95 41.9999 187.75 41.9999 187.55 42.1999C187.35 42.3999 187.35 42.5999 187.55 42.7999L189.65 44.8999L187.55 46.9999C187.35 47.1999 187.35 47.3999 187.55 47.5999C187.75 47.7999 187.95 47.7999 188.15 47.5999L190.25 45.4999L192.35 47.5999C192.55 47.7999 192.75 47.7999 192.95 47.5999C193.15 47.3999 193.15 47.0999 192.95 46.9999Z" fill="#FE5115"/>
<path d="M210.35 46.9999L208.25 44.8999L210.35 42.7999C210.55 42.5999 210.55 42.3999 210.35 42.1999C210.15 41.9999 209.95 41.9999 209.75 42.1999L207.65 44.2999L205.55 42.1999C205.35 41.9999 205.15 41.9999 204.95 42.1999C204.75 42.3999 204.75 42.5999 204.95 42.7999L207.05 44.8999L204.95 46.9999C204.75 47.1999 204.75 47.3999 204.95 47.5999C205.15 47.7999 205.35 47.7999 205.55 47.5999L207.65 45.4999L209.75 47.5999C209.95 47.7999 210.15 47.7999 210.35 47.5999C210.55 47.3999 210.55 47.0999 210.35 46.9999Z" fill="#FE5115"/>
<path d="M227.65 46.9999L225.55 44.8999L227.65 42.7999C227.85 42.5999 227.85 42.3999 227.65 42.1999C227.45 41.9999 227.25 41.9999 227.05 42.1999L224.95 44.2999L222.85 42.1999C222.65 41.9999 222.45 41.9999 222.25 42.1999C222.05 42.3999 222.05 42.5999 222.25 42.7999L224.35 44.8999L222.25 46.9999C222.05 47.1999 222.05 47.3999 222.25 47.5999C222.45 47.7999 222.65 47.7999 222.85 47.5999L224.95 45.4999L227.05 47.5999C227.25 47.7999 227.45 47.7999 227.65 47.5999C227.85 47.3999 227.85 47.0999 227.65 46.9999Z" fill="#FE5115"/>
<path d="M245.05 46.9999L242.95 44.8999L245.05 42.7999C245.25 42.5999 245.25 42.3999 245.05 42.1999C244.85 41.9999 244.65 41.9999 244.45 42.1999L242.35 44.2999L240.25 42.1999C240.05 41.9999 239.85 41.9999 239.65 42.1999C239.45 42.3999 239.45 42.5999 239.65 42.7999L241.75 44.8999L239.65 46.9999C239.45 47.1999 239.45 47.3999 239.65 47.5999C239.85 47.7999 240.05 47.7999 240.25 47.5999L242.35 45.4999L244.45 47.5999C244.65 47.7999 244.85 47.7999 245.05 47.5999C245.25 47.3999 245.25 47.0999 245.05 46.9999Z" fill="#FE5115"/>
<path d="M262.45 46.9999L260.35 44.8999L262.45 42.7999C262.65 42.5999 262.65 42.3999 262.45 42.1999C262.25 41.9999 262.05 41.9999 261.85 42.1999L259.75 44.2999L257.65 42.1999C257.45 41.9999 257.25 41.9999 257.05 42.1999C256.85 42.3999 256.85 42.5999 257.05 42.7999L259.15 44.8999L257.05 46.9999C256.85 47.1999 256.85 47.3999 257.05 47.5999C257.25 47.7999 257.45 47.7999 257.65 47.5999L259.75 45.4999L261.85 47.5999C262.05 47.7999 262.25 47.7999 262.45 47.5999C262.65 47.3999 262.65 47.0999 262.45 46.9999Z" fill="#FE5115"/>
<path d="M279.75 46.9999L277.65 44.8999L279.75 42.7999C279.95 42.5999 279.95 42.3999 279.75 42.1999C279.55 41.9999 279.35 41.9999 279.15 42.1999L277.05 44.2999L274.95 42.1999C274.75 41.9999 274.55 41.9999 274.35 42.1999C274.15 42.3999 274.15 42.5999 274.35 42.7999L276.45 44.8999L274.35 46.9999C274.15 47.1999 274.15 47.3999 274.35 47.5999C274.55 47.7999 274.75 47.7999 274.95 47.5999L277.05 45.4999L279.15 47.5999C279.35 47.7999 279.55 47.7999 279.75 47.5999C279.95 47.3999 279.95 47.0999 279.75 46.9999Z" fill="#FE5115"/>
<path d="M297.15 46.9999L295.05 44.8999L297.15 42.7999C297.35 42.5999 297.35 42.3999 297.15 42.1999C296.95 41.9999 296.75 41.9999 296.55 42.1999L294.45 44.2999L292.35 42.1999C292.15 41.9999 291.95 41.9999 291.75 42.1999C291.55 42.3999 291.55 42.5999 291.75 42.7999L293.85 44.8999L291.75 46.9999C291.55 47.1999 291.55 47.3999 291.75 47.5999C291.95 47.7999 292.15 47.7999 292.35 47.5999L294.45 45.4999L296.55 47.5999C296.75 47.7999 296.95 47.7999 297.15 47.5999C297.35 47.3999 297.35 47.0999 297.15 46.9999Z" fill="#FE5115"/>
<path d="M314.55 46.9999L312.45 44.8999L314.55 42.7999C314.75 42.5999 314.75 42.3999 314.55 42.1999C314.35 41.9999 314.15 41.9999 313.95 42.1999L311.85 44.2999L309.75 42.1999C309.55 41.9999 309.35 41.9999 309.15 42.1999C308.95 42.3999 308.95 42.5999 309.15 42.7999L311.25 44.8999L309.15 46.9999C308.95 47.1999 308.95 47.3999 309.15 47.5999C309.35 47.7999 309.55 47.7999 309.75 47.5999L311.85 45.4999L313.95 47.5999C314.15 47.7999 314.35 47.7999 314.55 47.5999C314.75 47.3999 314.75 47.0999 314.55 46.9999Z" fill="#FE5115"/>
<path d="M331.85 46.9999L329.75 44.8999L331.85 42.7999C332.05 42.5999 332.05 42.3999 331.85 42.1999C331.65 41.9999 331.45 41.9999 331.25 42.1999L329.15 44.2999L327.05 42.1999C326.85 41.9999 326.65 41.9999 326.45 42.1999C326.25 42.3999 326.25 42.5999 326.45 42.7999L328.55 44.8999L326.45 46.9999C326.25 47.1999 326.25 47.3999 326.45 47.5999C326.65 47.7999 326.85 47.7999 327.05 47.5999L329.15 45.4999L331.25 47.5999C331.45 47.7999 331.65 47.7999 331.85 47.5999C332.05 47.3999 332.05 47.0999 331.85 46.9999Z" fill="#FE5115"/>
<path d="M349.25 46.9999L347.15 44.8999L349.25 42.7999C349.45 42.5999 349.45 42.3999 349.25 42.1999C349.05 41.9999 348.85 41.9999 348.65 42.1999L346.55 44.2999L344.45 42.1999C344.25 41.9999 344.05 41.9999 343.85 42.1999C343.65 42.3999 343.65 42.5999 343.85 42.7999L345.95 44.8999L343.85 46.9999C343.65 47.1999 343.65 47.3999 343.85 47.5999C344.05 47.7999 344.25 47.7999 344.45 47.5999L346.55 45.4999L348.65 47.5999C348.85 47.7999 349.05 47.7999 349.25 47.5999C349.45 47.3999 349.45 47.0999 349.25 46.9999Z" fill="#FE5115"/>
<path d="M366.65 46.9999L364.55 44.8999L366.65 42.7999C366.85 42.5999 366.85 42.3999 366.65 42.1999C366.45 41.9999 366.25 41.9999 366.05 42.1999L363.95 44.2999L361.85 42.1999C361.65 41.9999 361.45 41.9999 361.25 42.1999C361.05 42.3999 361.05 42.5999 361.25 42.7999L363.35 44.8999L361.25 46.9999C361.05 47.1999 361.05 47.3999 361.25 47.5999C361.45 47.7999 361.65 47.7999 361.85 47.5999L363.95 45.4999L366.05 47.5999C366.25 47.7999 366.45 47.7999 366.65 47.5999C366.85 47.3999 366.85 47.0999 366.65 46.9999Z" fill="#FE5115"/>
<path d="M192.95 60.8L190.85 58.7L192.95 56.6C193.15 56.4 193.15 56.2 192.95 56C192.75 55.8 192.55 55.8 192.35 56L190.25 58.1L188.15 56C187.95 55.8 187.75 55.8 187.55 56C187.35 56.2 187.35 56.4 187.55 56.6L189.65 58.7L187.55 60.8C187.35 61 187.35 61.2 187.55 61.4C187.75 61.6 187.95 61.6 188.15 61.4L190.25 59.3L192.35 61.4C192.55 61.6 192.75 61.6 192.95 61.4C193.15 61.2 193.15 61 192.95 60.8Z" fill="#FE5115"/>
<path d="M210.35 60.8L208.25 58.7L210.35 56.6C210.55 56.4 210.55 56.2 210.35 56C210.15 55.8 209.95 55.8 209.75 56L207.65 58.1L205.55 56C205.35 55.8 205.15 55.8 204.95 56C204.75 56.2 204.75 56.4 204.95 56.6L207.05 58.7L204.95 60.8C204.75 61 204.75 61.2 204.95 61.4C205.15 61.6 205.35 61.6 205.55 61.4L207.65 59.3L209.75 61.4C209.95 61.6 210.15 61.6 210.35 61.4C210.55 61.2 210.55 61 210.35 60.8Z" fill="#FE5115"/>
<path d="M227.65 60.8L225.55 58.7L227.65 56.6C227.85 56.4 227.85 56.2 227.65 56C227.45 55.8 227.25 55.8 227.05 56L224.95 58.1L222.85 56C222.65 55.8 222.45 55.8 222.25 56C222.05 56.2 222.05 56.4 222.25 56.6L224.35 58.7L222.25 60.8C222.05 61 222.05 61.2 222.25 61.4C222.45 61.6 222.65 61.6 222.85 61.4L224.95 59.3L227.05 61.4C227.25 61.6 227.45 61.6 227.65 61.4C227.85 61.2 227.85 61 227.65 60.8Z" fill="#FE5115"/>
<path d="M245.05 60.8L242.95 58.7L245.05 56.6C245.25 56.4 245.25 56.2 245.05 56C244.85 55.8 244.65 55.8 244.45 56L242.35 58.1L240.25 56C240.05 55.8 239.85 55.8 239.65 56C239.45 56.2 239.45 56.4 239.65 56.6L241.75 58.7L239.65 60.8C239.45 61 239.45 61.2 239.65 61.4C239.85 61.6 240.05 61.6 240.25 61.4L242.35 59.3L244.45 61.4C244.65 61.6 244.85 61.6 245.05 61.4C245.25 61.2 245.25 61 245.05 60.8Z" fill="#FE5115"/>
<path d="M262.45 60.8L260.35 58.7L262.45 56.6C262.65 56.4 262.65 56.2 262.45 56C262.25 55.8 262.05 55.8 261.85 56L259.75 58.1L257.65 56C257.45 55.8 257.25 55.8 257.05 56C256.85 56.2 256.85 56.4 257.05 56.6L259.15 58.7L257.05 60.8C256.85 61 256.85 61.2 257.05 61.4C257.25 61.6 257.45 61.6 257.65 61.4L259.75 59.3L261.85 61.4C262.05 61.6 262.25 61.6 262.45 61.4C262.65 61.2 262.65 61 262.45 60.8Z" fill="#FE5115"/>
<path d="M279.75 60.8L277.65 58.7L279.75 56.6C279.95 56.4 279.95 56.2 279.75 56C279.55 55.8 279.35 55.8 279.15 56L277.05 58.1L274.95 56C274.75 55.8 274.55 55.8 274.35 56C274.15 56.2 274.15 56.4 274.35 56.6L276.45 58.7L274.35 60.8C274.15 61 274.15 61.2 274.35 61.4C274.55 61.6 274.75 61.6 274.95 61.4L277.05 59.3L279.15 61.4C279.35 61.6 279.55 61.6 279.75 61.4C279.95 61.2 279.95 61 279.75 60.8Z" fill="#FE5115"/>
<path d="M297.15 60.8L295.05 58.7L297.15 56.6C297.35 56.4 297.35 56.2 297.15 56C296.95 55.8 296.75 55.8 296.55 56L294.45 58.1L292.35 56C292.15 55.8 291.95 55.8 291.75 56C291.55 56.2 291.55 56.4 291.75 56.6L293.85 58.7L291.75 60.8C291.55 61 291.55 61.2 291.75 61.4C291.95 61.6 292.15 61.6 292.35 61.4L294.45 59.3L296.55 61.4C296.75 61.6 296.95 61.6 297.15 61.4C297.35 61.2 297.35 61 297.15 60.8Z" fill="#FE5115"/>
<path d="M314.55 60.8L312.45 58.7L314.55 56.6C314.75 56.4 314.75 56.2 314.55 56C314.35 55.8 314.15 55.8 313.95 56L311.85 58.1L309.75 56C309.55 55.8 309.35 55.8 309.15 56C308.95 56.2 308.95 56.4 309.15 56.6L311.25 58.7L309.15 60.8C308.95 61 308.95 61.2 309.15 61.4C309.35 61.6 309.55 61.6 309.75 61.4L311.85 59.3L313.95 61.4C314.15 61.6 314.35 61.6 314.55 61.4C314.75 61.2 314.75 61 314.55 60.8Z" fill="#FE5115"/>
<path d="M331.85 60.8L329.75 58.7L331.85 56.6C332.05 56.4 332.05 56.2 331.85 56C331.65 55.8 331.45 55.8 331.25 56L329.15 58.1L327.05 56C326.85 55.8 326.65 55.8 326.45 56C326.25 56.2 326.25 56.4 326.45 56.6L328.55 58.7L326.45 60.8C326.25 61 326.25 61.2 326.45 61.4C326.65 61.6 326.85 61.6 327.05 61.4L329.15 59.3L331.25 61.4C331.45 61.6 331.65 61.6 331.85 61.4C332.05 61.2 332.05 61 331.85 60.8Z" fill="#FE5115"/>
<path d="M349.25 60.8L347.15 58.7L349.25 56.6C349.45 56.4 349.45 56.2 349.25 56C349.05 55.8 348.85 55.8 348.65 56L346.55 58.1L344.45 56C344.25 55.8 344.05 55.8 343.85 56C343.65 56.2 343.65 56.4 343.85 56.6L345.95 58.7L343.85 60.8C343.65 61 343.65 61.2 343.85 61.4C344.05 61.6 344.25 61.6 344.45 61.4L346.55 59.3L348.65 61.4C348.85 61.6 349.05 61.6 349.25 61.4C349.45 61.2 349.45 61 349.25 60.8Z" fill="#FE5115"/>
<path d="M366.65 60.8L364.55 58.7L366.65 56.6C366.85 56.4 366.85 56.2 366.65 56C366.45 55.8 366.25 55.8 366.05 56L363.95 58.1L361.85 56C361.65 55.8 361.45 55.8 361.25 56C361.05 56.2 361.05 56.4 361.25 56.6L363.35 58.7L361.25 60.8C361.05 61 361.05 61.2 361.25 61.4C361.45 61.6 361.65 61.6 361.85 61.4L363.95 59.3L366.05 61.4C366.25 61.6 366.45 61.6 366.65 61.4C366.85 61.2 366.85 61 366.65 60.8Z" fill="#FE5115"/>
</svg>
