<svg width="21" height="21" viewBox="0 0 21 21" fill="none" xmlns="http://www.w3.org/2000/svg">
<path d="M10.0855 4.42105V0H10.9145V4.42105H10.0855Z" fill="url(#paint0_linear_1328_1694)"/>
<path d="M9.49939 10.0855L6.69 7.27613L7.27615 6.68998L10.0855 9.49935V5.52632H10.9145V9.49935L13.7238 6.68998L14.31 7.27613L11.5006 10.0855H15.4737V10.9145H11.5007L14.31 13.7238L13.7239 14.31L10.9145 11.5006V15.4737H10.0855V11.5006L7.27615 14.31L6.68999 13.7238L9.49935 10.9145H5.52632V10.0855H9.49939Z" fill="url(#paint1_linear_1328_1694)"/>
<path d="M0 10.0855H4.42105V10.9145H0V10.0855Z" fill="url(#paint2_linear_1328_1694)"/>
<path d="M16.5789 10.0855H21V10.9145H16.5789V10.0855Z" fill="url(#paint3_linear_1328_1694)"/>
<path d="M10.0855 16.5789V21H10.9145V16.5789H10.0855Z" fill="url(#paint4_linear_1328_1694)"/>
<path d="M5.90846 14.5054L2.7823 17.6315L3.36845 18.2177L6.49461 15.0915L5.90846 14.5054Z" fill="url(#paint5_linear_1328_1694)"/>
<path d="M14.5054 5.90844L17.6315 2.78228L18.2177 3.36844L15.0915 6.49459L14.5054 5.90844Z" fill="url(#paint6_linear_1328_1694)"/>
<path d="M15.0915 14.5054L18.2177 17.6315L17.6315 18.2177L14.5054 15.0915L15.0915 14.5054Z" fill="url(#paint7_linear_1328_1694)"/>
<path d="M6.49461 5.90844L3.36846 2.78228L2.7823 3.36844L5.90846 6.49459L6.49461 5.90844Z" fill="url(#paint8_linear_1328_1694)"/>
<defs>
<linearGradient id="paint0_linear_1328_1694" x1="3.73026" y1="1.93421" x2="14.9211" y2="21.1382" gradientUnits="userSpaceOnUse">
<stop offset="0.9999" stop-color="#FE5115"/>
<stop offset="1" stop-color="white" stop-opacity="0.06"/>
</linearGradient>
<linearGradient id="paint1_linear_1328_1694" x1="3.73026" y1="1.93421" x2="14.9211" y2="21.1382" gradientUnits="userSpaceOnUse">
<stop offset="0.9999" stop-color="#FE5115"/>
<stop offset="1" stop-color="white" stop-opacity="0.06"/>
</linearGradient>
<linearGradient id="paint2_linear_1328_1694" x1="3.73026" y1="1.93421" x2="14.9211" y2="21.1382" gradientUnits="userSpaceOnUse">
<stop offset="0.9999" stop-color="#FE5115"/>
<stop offset="1" stop-color="white" stop-opacity="0.06"/>
</linearGradient>
<linearGradient id="paint3_linear_1328_1694" x1="3.73026" y1="1.93421" x2="14.9211" y2="21.1382" gradientUnits="userSpaceOnUse">
<stop offset="0.9999" stop-color="#FE5115"/>
<stop offset="1" stop-color="white" stop-opacity="0.06"/>
</linearGradient>
<linearGradient id="paint4_linear_1328_1694" x1="3.73026" y1="1.93421" x2="14.9211" y2="21.1382" gradientUnits="userSpaceOnUse">
<stop offset="0.9999" stop-color="#FE5115"/>
<stop offset="1" stop-color="white" stop-opacity="0.06"/>
</linearGradient>
<linearGradient id="paint5_linear_1328_1694" x1="3.73026" y1="1.93421" x2="14.9211" y2="21.1382" gradientUnits="userSpaceOnUse">
<stop offset="0.9999" stop-color="#FE5115"/>
<stop offset="1" stop-color="white" stop-opacity="0.06"/>
</linearGradient>
<linearGradient id="paint6_linear_1328_1694" x1="3.73026" y1="1.93421" x2="14.9211" y2="21.1382" gradientUnits="userSpaceOnUse">
<stop offset="0.9999" stop-color="#FE5115"/>
<stop offset="1" stop-color="white" stop-opacity="0.06"/>
</linearGradient>
<linearGradient id="paint7_linear_1328_1694" x1="3.73026" y1="1.93421" x2="14.9211" y2="21.1382" gradientUnits="userSpaceOnUse">
<stop offset="0.9999" stop-color="#FE5115"/>
<stop offset="1" stop-color="white" stop-opacity="0.06"/>
</linearGradient>
<linearGradient id="paint8_linear_1328_1694" x1="3.73026" y1="1.93421" x2="14.9211" y2="21.1382" gradientUnits="userSpaceOnUse">
<stop offset="0.9999" stop-color="#FE5115"/>
<stop offset="1" stop-color="white" stop-opacity="0.06"/>
</linearGradient>
</defs>
</svg>
