<svg width="326" height="119" viewBox="0 0 326 119" fill="none" xmlns="http://www.w3.org/2000/svg">
<g clip-path="url(#clip0_19_8)">
<path d="M325 60.9408L315.49 45.3588L311.124 70.922L288.265 6L268.637 86.4711L261.22 30.2298L250.16 60.9408L224.202 10.5984L234.306 94.8415L217.833 46.8539L205.771 108.022L197.158 10.5984L175.755 86.4711L161.626 23.1555L155.104 80.281L142.957 30.2298L136.18 66.1323L133.942 10.5984L120.9 60.9408L94.9426 6.00004L99.1623 108.022L83.6262 51.1902L69.4967 113L70.0553 36.674L47.7575 117.145L28.6274 17.1178L14.3137 48.6994L0 80.281" stroke="#FE5115" stroke-width="4"/>
</g>
<defs>
<clipPath id="clip0_19_8">
<rect width="326" height="119" fill="white"/>
</clipPath>
</defs>
</svg>
